<svg width="33.000000" height="33.000000" viewBox="0 0 33 33" fill="none" xmlns="http://www.w3.org/2000/svg" xmlns:xlink="http://www.w3.org/1999/xlink">
	<desc>
			Created with Pixso.
	</desc>
	<defs>
		<clipPath id="clip211_2073">
			<rect id="Logo" width="28.538849" height="18.793875" transform="translate(2.325439 6.915771)" fill="white" fill-opacity="0"/>
		</clipPath>
	</defs>
	<rect id="Logo" width="28.538849" height="18.793875" transform="translate(2.325439 6.915771)" fill="#FFFFFF" fill-opacity="0"/>
	<g clip-path="url(#clip211_2073)">
		<path id="Vector" d="M29.08 7.5C29.08 7.82 29.34 8.09 29.67 8.09L30.26 8.09C30.59 8.09 30.86 7.82 30.86 7.5C30.86 7.17 30.59 6.91 30.26 6.91L29.67 6.91C29.34 6.91 29.08 7.17 29.08 7.5Z" fill="#212326" fill-opacity="1.000000" fill-rule="nonzero"/>
		<path id="Vector" d="M11.83 25.7L14.72 25.7L13.88 24.87C13.66 24.65 13.36 24.53 13.04 24.53L11.83 24.53C7.24 24.53 3.51 20.85 3.51 16.31C3.51 11.77 7.24 8.09 11.83 8.09L21.35 8.09C25.94 8.09 29.67 11.77 29.67 16.31C29.67 20.85 25.94 24.53 21.35 24.53L17.79 24.53C17.31 24.53 16.86 24.34 16.53 24.01L15.54 23.04C14.98 22.49 14.23 22.18 13.44 22.18L11.83 22.18C8.55 22.18 5.89 19.55 5.89 16.31C5.89 13.06 8.55 10.43 11.83 10.43L21.35 10.43C24.63 10.43 27.29 13.06 27.29 16.31C27.29 19.55 24.63 22.18 21.35 22.18L19.06 22.18C18.59 22.18 18.13 22 17.8 21.66L16.82 20.69C16.26 20.14 15.5 19.83 14.71 19.83L11.83 19.83C9.86 19.83 8.27 18.25 8.27 16.31C8.27 14.36 9.86 12.78 11.83 12.78L21.35 12.78C23.32 12.78 24.91 14.36 24.91 16.31C24.91 18.23 23.36 19.79 21.42 19.83L21.42 19.83L20.55 19.83C20.07 19.83 19.62 19.65 19.29 19.32L18.3 18.34C17.84 17.89 17.25 17.6 16.62 17.51L16.59 17.48L11.83 17.48C11.18 17.48 10.64 16.96 10.64 16.31C10.64 15.66 11.18 15.13 11.83 15.13L21.35 15.13C22 15.13 22.54 15.66 22.54 16.31C22.54 16.96 22 17.48 21.35 17.48L18.97 17.48L19.81 18.31C20.03 18.53 20.33 18.66 20.65 18.66L21.35 18.66C22.66 18.66 23.72 17.61 23.72 16.31C23.72 15.01 22.66 13.96 21.35 13.96L11.83 13.96C10.52 13.96 9.46 15.01 9.46 16.31C9.46 17.61 10.52 18.66 11.83 18.66L16.2 18.66C16.67 18.66 17.13 18.84 17.46 19.17L18.45 20.15C19 20.7 19.76 21.01 20.55 21.01L21.64 21.01L21.64 21C24.13 20.85 26.1 18.8 26.1 16.31C26.1 13.71 23.97 11.61 21.35 11.61L11.83 11.61C9.21 11.61 7.08 13.71 7.08 16.31C7.08 18.9 9.21 21.01 11.83 21.01L14.71 21.01C15.19 21.01 15.64 21.19 15.97 21.52L16.96 22.5C17.52 23.05 18.27 23.36 19.06 23.36L21.35 23.36C25.29 23.36 28.48 20.2 28.48 16.31C28.48 12.42 25.29 9.26 21.35 9.26L11.83 9.26C7.89 9.26 4.7 12.42 4.7 16.31C4.7 20.2 7.89 23.36 11.83 23.36L13.44 23.36C13.91 23.36 14.37 23.54 14.7 23.87L15.69 24.84C16.24 25.4 17 25.7 17.79 25.7L21.35 25.7C26.6 25.7 30.86 21.5 30.86 16.31C30.86 11.12 26.6 6.91 21.35 6.91L11.83 6.91C6.58 6.91 2.32 11.12 2.32 16.31C2.32 21.5 6.58 25.7 11.83 25.7Z" fill="#212326" fill-opacity="1.000000" fill-rule="nonzero"/>
	</g>
</svg>
