<svg width="40" height="40" viewBox="0 0 34 35" fill="none" xmlns="http://www.w3.org/2000/svg">
<rect x="0.142151" y="0.919312" width="33.4113" height="33.4113" rx="5.56856" fill="none"/>
<g clip-path="url(#clip0_211_2511)">
<path fill-rule="evenodd" clip-rule="evenodd" d="M7.34882 1.05469C11.1931 1.05469 14.3095 4.17109 14.3095 8.01538V1.05469H21.2702C25.1145 1.05469 28.2309 4.17109 28.2309 8.01538C28.2309 11.8596 25.1145 14.9761 21.2702 14.9761C25.1145 14.9761 28.2309 18.0925 28.2309 21.9368C28.2309 23.8456 27.4625 25.575 26.2182 26.8325L26.1922 26.8587L26.1691 26.8817C24.9113 28.1278 23.1806 28.8975 21.2702 28.8975C19.3728 28.8975 17.6527 28.1383 16.397 26.9071C16.3807 26.891 16.3644 26.8749 16.3482 26.8587C16.333 26.8435 16.3178 26.8282 16.3027 26.8128C15.0699 25.557 14.3095 23.8356 14.3095 21.9368C14.3095 25.781 11.1931 28.8975 7.34882 28.8975C3.50453 28.8975 0.388123 25.781 0.388123 21.9368V14.9761H7.34882C3.50453 14.9761 0.388123 11.8596 0.388123 8.01538C0.388123 4.17109 3.50453 1.05469 7.34882 1.05469ZM12.9174 8.01538C12.9174 11.0908 10.4243 13.5839 7.34882 13.5839V2.44683C10.4243 2.44683 12.9174 4.93995 12.9174 8.01538ZM26.8388 21.9368C26.8388 18.8613 24.3457 16.3682 21.2702 16.3682C18.1948 16.3682 15.7017 18.8613 15.7017 21.9368H26.8388ZM1.78026 16.3682V21.9368C1.78026 25.0122 4.27339 27.5053 7.34882 27.5053C10.4243 27.5053 12.9174 25.0122 12.9174 21.9368V16.3682H1.78026ZM15.7017 13.5839V2.44683H21.2702C24.3457 2.44683 26.8388 4.93995 26.8388 8.01538C26.8388 11.0908 24.3457 13.5839 21.2702 13.5839H15.7017Z" fill="#5417D7"/>
</g>
<defs>
<clipPath id="clip0_211_2511">
<rect width="27.8428" height="27.8428" fill="white" transform="translate(0.388123 1.05469)"/>
</clipPath>
</defs>
</svg>
