<svg width="32.000000" height="20.000000" viewBox="0 0 32 20" fill="none" xmlns="http://www.w3.org/2000/svg" xmlns:xlink="http://www.w3.org/1999/xlink">
	<desc>
			Created with Pixso.
	</desc>
	<defs>
		<clipPath id="clip211_2057">
			<rect id="Logo" width="32.715263" height="20.186014" transform="translate(-0.839478 -0.780273)" fill="white" fill-opacity="0"/>
		</clipPath>
	</defs>
	<rect id="Logo" width="32.715263" height="20.186014" transform="translate(-0.839478 -0.780273)" fill="#FFFFFF" fill-opacity="0"/>
	<g clip-path="url(#clip211_2057)">
		<path id="Vector" d="M29.78 1.7C29.78 1.72 29.78 1.75 29.77 1.77C29.74 2 29.74 2.23 29.76 2.46C29.77 2.52 29.79 2.58 29.84 2.63C29.92 2.71 30.04 2.7 30.09 2.59C30.11 2.54 30.11 2.48 30.1 2.43C30.04 2.21 30.03 1.97 30.02 1.74C30.02 1.73 30.02 1.71 30.02 1.7C30.09 1.69 30.15 1.68 30.2 1.68C30.25 1.68 30.28 1.67 30.31 1.65C30.41 1.61 30.41 1.51 30.31 1.46C30.27 1.44 30.22 1.44 30.18 1.44C30.03 1.44 29.87 1.44 29.72 1.44C29.66 1.44 29.61 1.45 29.55 1.45C29.52 1.46 29.49 1.46 29.46 1.48C29.42 1.5 29.39 1.53 29.39 1.57C29.4 1.61 29.42 1.63 29.46 1.65C29.49 1.67 29.52 1.67 29.55 1.67C29.62 1.68 29.7 1.69 29.78 1.7ZM31.47 1.97C31.47 1.97 31.47 1.98 31.47 1.98C31.5 2.14 31.52 2.29 31.54 2.44C31.55 2.5 31.55 2.54 31.59 2.58C31.67 2.68 31.79 2.67 31.85 2.57C31.87 2.51 31.88 2.46 31.86 2.4C31.83 2.23 31.81 2.05 31.77 1.88C31.75 1.77 31.72 1.67 31.69 1.58C31.67 1.52 31.63 1.48 31.55 1.47C31.48 1.46 31.42 1.5 31.39 1.55C31.36 1.6 31.33 1.64 31.3 1.7C31.26 1.79 31.22 1.88 31.17 1.97C31.17 2 31.16 2.01 31.15 2.03C31.14 2.02 31.14 2.01 31.14 2.01C31.06 1.87 30.98 1.72 30.9 1.58C30.89 1.57 30.88 1.55 30.88 1.54C30.84 1.49 30.8 1.46 30.73 1.46C30.67 1.47 30.62 1.5 30.59 1.55C30.58 1.58 30.58 1.6 30.57 1.62C30.55 1.81 30.52 2 30.49 2.18C30.48 2.29 30.47 2.4 30.47 2.5C30.47 2.53 30.47 2.55 30.49 2.58C30.5 2.63 30.53 2.65 30.58 2.66C30.64 2.67 30.69 2.65 30.71 2.6C30.72 2.57 30.73 2.54 30.74 2.51C30.76 2.4 30.78 2.3 30.8 2.2C30.81 2.14 30.82 2.1 30.83 2.03C30.85 2.05 30.86 2.07 30.87 2.09C30.93 2.16 30.98 2.23 31.05 2.29C31.12 2.34 31.17 2.33 31.23 2.28C31.24 2.27 31.25 2.26 31.26 2.25C31.31 2.17 31.38 2.08 31.44 2C31.45 1.99 31.45 1.98 31.47 1.97Z" fill="#3A3B7B" fill-opacity="1.000000" fill-rule="nonzero"/>
		<path id="Vector" d="M17.34 1.81C17.3 1.92 17.29 2 17.31 2.07C17.33 2.16 17.39 2.19 17.46 2.17C18.18 2 19.76 2.48 20.35 2.62C20.49 2.65 20.6 2.48 20.5 2.32C20.37 2.17 18.79 1.54 18.19 1.5C17.95 1.49 17.53 1.43 17.34 1.81Z" fill="#3A3B7B" fill-opacity="1.000000" fill-rule="nonzero"/>
		<path id="Vector" d="M23.51 -0.24C23.59 -0.2 23.63 -0.16 23.65 -0.12C23.68 -0.06 23.67 -0.02 23.61 0.01C23.14 0.23 22.5 1.19 22.25 1.52C22.19 1.6 22.04 1.55 22.02 1.43C22.03 1.28 22.59 0.24 22.9 -0.04C23.02 -0.15 23.23 -0.37 23.51 -0.24Z" fill="#3A3B7B" fill-opacity="1.000000" fill-rule="nonzero"/>
		<path id="Vector" d="M19.72 -0.72C19.81 -0.78 19.91 -0.81 19.96 -0.76C20.68 -0.17 21.06 0.76 21.29 1.61C21.3 1.63 21.3 1.66 21.29 1.69C21.29 1.72 21.27 1.75 21.24 1.77C21.21 1.79 21.18 1.8 21.17 1.78C20.85 1.37 19.05 -0.23 19.72 -0.72Z" fill="#3A3B7B" fill-opacity="1.000000" fill-rule="nonzero"/>
		<path id="Vector" d="M4.51 9.5C4.68 9.38 4.87 9.28 5.07 9.2C5.28 9.14 5.5 9.15 5.7 9.23C5.9 9.3 6.07 9.44 6.18 9.61C6.29 9.79 6.33 9.99 6.3 10.19C6.27 10.39 6.17 10.57 6.03 10.71C5.91 10.83 5.78 10.93 5.64 11.01C5.01 11.4 4.38 11.77 3.74 12.16C3.61 12.26 3.47 12.35 3.33 12.42C3.11 12.53 2.86 12.56 2.62 12.5C2.38 12.45 2.17 12.32 2.02 12.13C1.91 12 1.82 11.85 1.74 11.7C1.14 10.48 0.52 9.27 -0.06 8.04C-0.33 7.5 -0.55 6.89 -0.76 6.29C-0.85 6.12 -0.87 5.92 -0.81 5.74C-0.75 5.55 -0.62 5.4 -0.44 5.3C-0.26 5.21 -0.06 5.19 0.14 5.24C0.33 5.29 0.5 5.42 0.6 5.58C0.91 5.98 1.19 6.4 1.42 6.85C2.03 7.92 2.6 8.98 3.18 10.02C3.21 10.08 3.25 10.14 3.29 10.19C3.73 10.01 4.14 9.78 4.51 9.5Z" fill="#3A3B7B" fill-opacity="1.000000" fill-rule="nonzero"/>
		<path id="Vector" d="M10.73 9.13C9.36 10.68 7.05 10.29 5.89 8.3C5.07 6.88 4.92 4.55 6.72 3.08C7.1 2.77 7.56 2.56 8.05 2.47C8.65 2.39 9.26 2.49 9.8 2.76C10.34 3.03 10.77 3.46 11.04 3.99C12.02 5.7 11.88 7.88 10.73 9.13ZM10.18 5.53C10.03 5.1 9.74 4.75 9.35 4.51C9.13 4.36 8.86 4.28 8.59 4.3C8.32 4.32 8.06 4.42 7.86 4.6C7.06 5.28 6.9 6.89 7.47 7.85C7.55 8 7.66 8.14 7.79 8.25C7.93 8.37 8.09 8.45 8.26 8.49C8.43 8.54 8.61 8.55 8.79 8.52C8.96 8.49 9.13 8.43 9.28 8.33C9.71 8.01 10.03 7.57 10.19 7.07C10.34 6.57 10.34 6.03 10.16 5.53L10.18 5.53Z" fill="#3A3B7B" fill-opacity="1.000000" fill-rule="nonzero"/>
		<path id="Vector" d="M16.35 6.2C16.21 6.23 16.07 6.23 15.92 6.2C15.78 6.18 15.65 6.13 15.53 6.05C15.42 5.99 15.33 5.91 15.26 5.82C15.19 5.72 15.15 5.61 15.13 5.5C15.11 5.38 15.11 5.27 15.15 5.15C15.18 5.04 15.24 4.94 15.32 4.85C15.45 4.68 15.65 4.55 15.87 4.49C16.45 4.33 17.05 4.23 17.66 4.2C17.79 4.18 17.92 4.19 18.05 4.23C18.18 4.27 18.3 4.33 18.4 4.41C18.51 4.49 18.59 4.59 18.66 4.7C18.72 4.81 18.76 4.94 18.77 5.07C18.95 5.69 18.96 6.35 18.83 6.99C18.33 9.04 16.6 9.75 14.66 9.09C14.11 8.91 13.64 8.58 13.29 8.15C12.82 7.62 12.49 6.99 12.32 6.32C12.19 5.72 12.2 5.1 12.37 4.51C12.53 3.92 12.84 3.37 13.27 2.92C13.68 2.43 14.21 2.04 14.81 1.79C15.19 1.59 15.63 1.53 16.06 1.63C16.15 1.66 16.24 1.71 16.31 1.78C16.38 1.84 16.43 1.93 16.45 2.02C16.47 2.11 16.47 2.21 16.44 2.3C16.41 2.39 16.36 2.48 16.29 2.54C16.15 2.66 16 2.77 15.83 2.86C15.34 3.16 14.91 3.55 14.56 4.01C14.34 4.31 14.18 4.65 14.11 5.01C14.03 5.37 14.04 5.74 14.13 6.09C14.26 6.58 14.54 7.01 14.94 7.34C16.16 8.41 17.76 7.38 17.48 5.92C17.07 6.01 16.71 6.11 16.35 6.2Z" fill="#3A3B7B" fill-opacity="1.000000" fill-rule="nonzero"/>
		<path id="Vector" d="M23.84 9.22C22.03 10.29 19.97 9.22 19.52 6.97C19.19 5.37 19.81 3.12 22 2.26C22.46 2.08 22.97 2.02 23.46 2.08C24.06 2.19 24.61 2.47 25.03 2.89C25.45 3.31 25.72 3.84 25.81 4.42C26.18 6.33 25.34 8.37 23.84 9.22ZM24.47 5.62C24.47 5.17 24.31 4.74 24.01 4.4C23.85 4.19 23.62 4.04 23.36 3.98C23.1 3.91 22.82 3.93 22.57 4.04C21.59 4.45 20.9 5.93 21.15 7.01C21.17 7.18 21.23 7.35 21.32 7.49C21.41 7.64 21.54 7.77 21.68 7.86C21.83 7.96 22 8.02 22.18 8.05C22.35 8.08 22.53 8.06 22.71 8.02C23.22 7.84 23.67 7.52 23.99 7.09C24.31 6.66 24.47 6.14 24.47 5.62Z" fill="#3A3B7B" fill-opacity="1.000000" fill-rule="nonzero"/>
		<path id="Vector" d="M27.64 9.67C27.61 9.86 27.51 10.04 27.34 10.16C27.18 10.28 26.97 10.33 26.77 10.3C26.56 10.28 26.38 10.18 26.26 10.02C26.13 9.86 26.08 9.66 26.1 9.47C26.13 9.27 26.24 9.09 26.4 8.97C26.56 8.85 26.77 8.8 26.98 8.83C27.18 8.85 27.36 8.96 27.49 9.11C27.61 9.27 27.67 9.47 27.64 9.67ZM27.16 2.45C27.26 2.29 27.42 2.18 27.6 2.11C27.78 2.05 27.98 2.04 28.16 2.1C28.35 2.14 28.52 2.25 28.64 2.4C28.75 2.55 28.81 2.73 28.81 2.92C28.78 3.21 28.73 3.51 28.67 3.8C28.48 4.79 28.3 5.78 28.11 6.76C28.02 7.15 27.9 7.53 27.77 7.92C27.73 8.05 27.66 8.16 27.56 8.25C27.5 8.32 27.42 8.37 27.33 8.4C27.24 8.43 27.15 8.44 27.06 8.43C26.96 8.42 26.87 8.38 26.8 8.33C26.72 8.27 26.67 8.2 26.63 8.12C26.56 7.97 26.52 7.81 26.52 7.65C26.52 6.99 26.52 6.32 26.57 5.65C26.64 4.7 26.79 3.75 27.01 2.82C27.04 2.69 27.09 2.57 27.16 2.47L27.16 2.45Z" fill="#3A3B7B" fill-opacity="1.000000" fill-rule="nonzero"/>
		<path id="Vector" d="M2.16 13.96C2.09 14.1 2.07 14.26 2.11 14.41C2.13 14.61 2.17 14.81 2.25 15C2.33 15.23 2.43 15.46 2.56 15.74C2.59 15.8 2.62 15.87 2.65 15.94C2.81 16.32 3.02 16.81 3.3 17.51C3.38 17.71 3.45 17.91 3.52 18.12C3.55 18.2 3.58 18.28 3.6 18.36C3.71 18.66 3.89 18.92 4.13 19.13C4.23 19.25 4.36 19.33 4.51 19.37C4.67 19.41 4.83 19.41 4.98 19.36C5.14 19.32 5.27 19.22 5.37 19.1C5.46 18.98 5.52 18.84 5.53 18.69C5.59 18.4 5.57 18.09 5.47 17.81C5.31 17.34 5.12 16.88 4.91 16.42L4.91 16.41C4.56 15.7 4.2 14.99 3.82 14.27L3.82 14.27C3.71 14.08 3.57 13.92 3.4 13.78C3.29 13.65 3.14 13.57 2.97 13.54C2.8 13.51 2.63 13.54 2.48 13.62C2.34 13.7 2.22 13.82 2.16 13.96Z" fill="#3A3B7B" fill-opacity="1.000000" fill-rule="evenodd"/>
		<path id="Vector" d="M7.52 12.2C6.97 12.06 6.4 12.04 5.84 12.14C5.4 12.18 4.98 12.28 4.68 12.47C4.53 12.56 4.41 12.69 4.34 12.84C4.27 13 4.27 13.19 4.32 13.39C4.42 13.76 4.56 14.12 4.69 14.48L4.71 14.54L4.71 14.54C5.11 15.58 5.51 16.62 5.91 17.66C5.96 17.82 6.02 17.98 6.11 18.13L6.11 18.13C6.22 18.31 6.37 18.48 6.54 18.62C6.62 18.69 6.73 18.75 6.84 18.77C6.95 18.79 7.07 18.79 7.18 18.75C7.3 18.71 7.39 18.65 7.47 18.56C7.54 18.48 7.59 18.37 7.61 18.26C7.68 17.97 7.66 17.65 7.54 17.37C7.5 17.27 7.48 17.18 7.45 17.07C7.44 17.04 7.43 17 7.42 16.97C8.34 16.62 9.33 16.15 9.67 15.07C9.81 14.69 9.82 14.29 9.7 13.9C9.59 13.52 9.35 13.18 9.03 12.93C8.59 12.59 8.08 12.33 7.52 12.2ZM6 13.53C6.02 13.52 6.03 13.52 6.05 13.52C6.65 13.42 7.27 13.55 7.79 13.86C8.02 14.01 8.11 14.18 8.13 14.34C8.14 14.51 8.08 14.69 7.95 14.86C7.71 15.19 7.27 15.46 6.87 15.51C6.58 14.87 6.29 14.2 6 13.53Z" fill="#3A3B7B" fill-opacity="1.000000" fill-rule="evenodd"/>
		<path id="Vector" d="M11.2 11.03C11.85 10.74 12.67 10.69 13.3 10.89C13.46 10.93 13.6 11.03 13.69 11.16C13.79 11.3 13.83 11.45 13.82 11.61C13.82 11.72 13.79 11.82 13.74 11.91C13.69 12 13.62 12.08 13.53 12.14C13.44 12.2 13.33 12.24 13.23 12.25C13.12 12.27 13.01 12.26 12.91 12.22L12.9 12.22L12.89 12.21C12.84 12.19 12.78 12.17 12.72 12.15L12.72 12.15C12.27 12.04 11.85 12.23 11.7 12.46C11.62 12.57 11.61 12.68 11.68 12.79C11.74 12.89 11.9 13.02 12.23 13.1C12.32 13.13 12.41 13.15 12.5 13.17C12.76 13.24 13.03 13.3 13.29 13.4L13.29 13.4C14.48 13.83 14.92 14.73 14.77 15.58C14.62 16.42 13.89 17.19 12.79 17.37C12.39 17.45 11.98 17.43 11.59 17.32C11.19 17.2 10.84 16.99 10.56 16.7L10.55 16.69C10.47 16.58 10.41 16.46 10.38 16.32C10.36 16.2 10.37 16.07 10.42 15.96C10.46 15.84 10.55 15.74 10.65 15.67C10.76 15.59 10.89 15.54 11.03 15.53C11.17 15.52 11.31 15.55 11.43 15.61C11.55 15.67 11.67 15.74 11.77 15.82L11.77 15.83C11.95 15.98 12.17 16.02 12.38 15.99C12.59 15.95 12.79 15.83 12.92 15.67C13.04 15.51 13.09 15.32 13.03 15.14C12.97 14.96 12.79 14.75 12.39 14.58C12.28 14.53 12.17 14.5 12.06 14.47C12.03 14.46 12 14.45 11.96 14.44C11.88 14.41 11.79 14.39 11.71 14.36C11.65 14.34 11.59 14.32 11.54 14.31C11.38 14.26 11.23 14.21 11.08 14.15C10.76 14.04 10.48 13.84 10.29 13.57C10.1 13.3 10 12.98 10.02 12.66C10.02 11.87 10.54 11.32 11.2 11.03Z" fill="#3A3B7B" fill-opacity="1.000000" fill-rule="nonzero"/>
		<path id="Vector" d="M19.51 10.94C19.39 10.88 19.25 10.85 19.11 10.86C18.96 10.87 18.83 10.9 18.7 10.97C18.58 11.04 18.48 11.14 18.41 11.26C18.34 11.35 18.3 11.46 18.27 11.58C18.25 11.69 18.25 11.81 18.28 11.92C18.3 12.07 18.33 12.21 18.35 12.35C18.39 12.58 18.44 12.81 18.46 13.04L18.47 13.05C18.53 13.41 18.56 13.78 18.56 14.15L18.56 14.15C18.59 14.55 18.44 14.94 18.17 15.24L18.17 15.25C18.08 15.36 17.96 15.44 17.82 15.49C17.69 15.54 17.54 15.55 17.4 15.52C17.26 15.49 17.12 15.43 17.02 15.33C16.91 15.24 16.84 15.12 16.8 14.98C16.72 14.7 16.67 14.41 16.66 14.12L16.8 11.99C16.8 11.97 16.8 11.94 16.8 11.91C16.81 11.85 16.81 11.78 16.82 11.72C16.82 11.63 16.82 11.54 16.8 11.45C16.77 11.36 16.73 11.27 16.65 11.2C16.58 11.13 16.48 11.08 16.35 11.04C16.12 10.98 15.93 10.98 15.77 11.04C15.6 11.11 15.49 11.23 15.41 11.37C15.34 11.51 15.29 11.68 15.25 11.85C15.22 11.97 15.2 12.1 15.18 12.22C15.17 12.26 15.16 12.31 15.15 12.35L15.15 12.35C15.04 13.02 15.01 13.71 15.05 14.39C15.06 14.76 15.14 15.13 15.29 15.47C15.46 15.91 15.76 16.29 16.16 16.56C16.55 16.84 17.03 16.99 17.52 16.99C18.01 17 18.49 16.87 18.89 16.61C19.3 16.35 19.62 15.98 19.8 15.54C20.05 14.99 20.17 14.38 20.15 13.78C20.13 13.34 20.11 12.89 20.08 12.45C20.07 12.23 20.06 12.02 20.05 11.8C20.04 11.58 19.97 11.38 19.83 11.2C19.75 11.09 19.64 11 19.51 10.94Z" fill="#3A3B7B" fill-opacity="1.000000" fill-rule="nonzero"/>
		<path id="Vector" d="M24.02 14.27C24 14.29 23.99 14.3 23.98 14.32C23.87 13.75 23.78 13.17 23.68 12.6C23.65 12.39 23.61 12.19 23.58 11.98L23.57 11.96L23.56 11.94C23.54 11.9 23.53 11.86 23.53 11.79L23.53 11.78L23.53 11.77C23.51 11.61 23.43 11.46 23.31 11.34C23.2 11.22 23.05 11.14 22.88 11.1C22.72 11.06 22.54 11.07 22.38 11.12C22.22 11.18 22.08 11.28 21.98 11.41C21.9 11.51 21.83 11.62 21.78 11.74C21.66 12 21.54 12.25 21.42 12.51L21.42 12.51C21.12 13.16 20.82 13.81 20.53 14.46L20.53 14.46C20.36 14.88 20.21 15.33 20.06 15.77C20.03 15.86 20 15.95 19.97 16.04C19.92 16.18 19.9 16.33 19.91 16.48C19.9 16.61 19.93 16.74 20 16.86C20.07 16.97 20.18 17.07 20.31 17.12C20.45 17.18 20.61 17.19 20.75 17.16C20.9 17.12 21.03 17.04 21.12 16.92C21.24 16.78 21.34 16.63 21.43 16.47C21.67 15.99 21.91 15.5 22.14 15.01C22.23 14.82 22.32 14.66 22.42 14.47C22.43 14.5 22.43 14.52 22.44 14.54C22.55 14.98 22.72 15.41 22.96 15.8C23.01 15.88 23.07 15.95 23.15 16.01C23.23 16.07 23.32 16.11 23.42 16.13C23.51 16.15 23.61 16.15 23.71 16.13C23.81 16.11 23.9 16.07 23.98 16.01L24.13 15.9L25.34 14.92L25.27 15.36C25.17 15.96 25.07 16.55 24.97 17.15C24.9 17.41 24.9 17.69 24.97 17.95C25 18.1 25.07 18.24 25.18 18.34C25.3 18.45 25.44 18.53 25.59 18.56C25.75 18.58 25.91 18.57 26.06 18.51C26.2 18.45 26.32 18.35 26.41 18.23C26.61 17.99 26.73 17.7 26.77 17.4C26.82 16.97 26.87 16.54 26.93 16.11C27 15.61 27.07 15.11 27.12 14.62L27.12 14.62C27.18 14.08 27.2 13.54 27.2 13C27.21 12.83 27.17 12.66 27.08 12.52C26.98 12.37 26.84 12.26 26.68 12.2C26.5 12.12 26.31 12.1 26.13 12.14C25.94 12.18 25.78 12.27 25.65 12.4C25.43 12.6 25.22 12.81 25.03 13.04L25.03 13.04C24.82 13.29 24.61 13.55 24.4 13.81C24.27 13.96 24.14 14.12 24.02 14.27Z" fill="#3A3B7B" fill-opacity="1.000000" fill-rule="nonzero"/>
	</g>
</svg>
