<svg width="36.000000" height="33.000000" viewBox="0 0 36 33" fill="none" xmlns="http://www.w3.org/2000/svg" xmlns:xlink="http://www.w3.org/1999/xlink">
	<desc>
			Created with Pixso.
	</desc>
	<defs>
		<clipPath id="clip211_2077">
			<rect id="Logo" width="36.195614" height="13.921390" transform="translate(-0.774170 9.003906)" fill="white" fill-opacity="0"/>
		</clipPath>
	</defs>
	<rect id="Logo" width="36.195614" height="13.921390" transform="translate(-0.774170 9.003906)" fill="#FFFFFF" fill-opacity="0"/>
	<g clip-path="url(#clip211_2077)">
		<path id="Vector" d="M7.81 9C6.4 9 5.04 9.56 4.04 10.56L0.78 13.82C-0.22 14.82 -0.78 16.18 -0.78 17.59C-0.78 20.53 1.61 22.92 4.55 22.92C5.96 22.92 7.32 22.36 8.32 21.36L10.58 19.1L17.15 12.53C17.63 12.05 18.27 11.78 18.95 11.78C20.08 11.78 21.04 12.52 21.37 13.54L23.45 11.46C22.5 9.98 20.84 9 18.95 9C17.54 9 16.18 9.56 15.18 10.56L6.35 19.39C5.87 19.87 5.23 20.14 4.55 20.14C3.14 20.14 2.01 19 2.01 17.59C2.01 16.92 2.27 16.27 2.75 15.79L6.01 12.53C6.49 12.05 7.14 11.78 7.81 11.78C8.94 11.78 9.9 12.52 10.23 13.54L12.31 11.46C11.36 9.98 9.7 9 7.81 9Z" fill="#394149" fill-opacity="1.000000" fill-rule="nonzero"/>
		<path id="Vector" d="M17.49 19.39C17.01 19.87 16.36 20.14 15.69 20.14C14.56 20.14 13.6 19.4 13.27 18.38L11.19 20.46C12.14 21.94 13.8 22.92 15.69 22.92C17.1 22.92 18.46 22.36 19.46 21.36L28.29 12.53C28.76 12.05 29.41 11.78 30.09 11.78C31.49 11.78 32.63 12.92 32.63 14.33C32.63 15 32.36 15.65 31.89 16.13L28.62 19.39C28.15 19.87 27.5 20.14 26.82 20.14C25.69 20.14 24.74 19.4 24.4 18.38L22.33 20.45C23.28 21.94 24.94 22.92 26.82 22.92C28.24 22.92 29.59 22.36 30.59 21.36L33.86 18.1C34.85 17.1 35.42 15.74 35.42 14.33C35.42 11.39 33.03 9 30.09 9C28.67 9 27.32 9.56 26.32 10.56L17.49 19.39Z" fill="#394149" fill-opacity="1.000000" fill-rule="nonzero"/>
	</g>
</svg>
