<svg width="27.000000" height="19.000000" viewBox="0 0 27 19" fill="none" xmlns="http://www.w3.org/2000/svg" xmlns:xlink="http://www.w3.org/1999/xlink">
	<desc>
			Created with Pixso.
	</desc>
	<defs>
		<clipPath id="clip211_2050">
			<rect id="Logo" width="27.842779" height="19.489944" transform="translate(-0.904907 -0.780273)" fill="white" fill-opacity="0"/>
		</clipPath>
	</defs>
	<rect id="Logo" width="27.842779" height="19.489944" transform="translate(-0.904907 -0.780273)" fill="#FFFFFF" fill-opacity="0"/>
	<g clip-path="url(#clip211_2050)">
		<path id="Vector" d="M6.04 2.08L-0.91 8.96C0.48 10.34 2.07 11.5 3.8 12.4C4.28 13.66 5.03 14.84 6.05 15.85C9.9 19.66 16.13 19.66 19.97 15.85C20.99 14.84 21.74 13.66 22.22 12.4C23.95 11.5 25.54 10.34 26.93 8.96L19.99 2.08C19.98 2.08 19.98 2.07 19.97 2.07C16.13 -1.74 9.9 -1.74 6.05 2.07C6.05 2.07 6.04 2.08 6.04 2.08ZM19.31 13.64C17.28 14.32 15.16 14.67 13.01 14.67C10.87 14.67 8.74 14.32 6.72 13.64C6.94 13.93 7.18 14.21 7.44 14.47C10.52 17.52 15.5 17.52 18.58 14.47C18.85 14.21 19.09 13.93 19.31 13.64ZM7.59 3.31C8.11 3.65 8.66 3.94 9.24 4.18C10.44 4.67 11.72 4.92 13.01 4.92C14.3 4.92 15.58 4.67 16.78 4.18C17.36 3.94 17.92 3.65 18.44 3.31C15.4 0.45 10.62 0.45 7.59 3.31Z" fill="#3B4158" fill-opacity="1.000000" fill-rule="evenodd"/>
	</g>
</svg>
