<svg width="38.000000" height="21.000000" viewBox="0 0 38 21" fill="none" xmlns="http://www.w3.org/2000/svg" xmlns:xlink="http://www.w3.org/1999/xlink">
	<desc>
			Created with Pixso.
	</desc>
	<defs>
		<clipPath id="clip211_2053">
			<rect id="Logo" width="38.283821" height="20.882084" transform="translate(-0.700562 -0.476562)" fill="white" fill-opacity="0"/>
		</clipPath>
	</defs>
	<rect id="Logo" width="38.283821" height="20.882084" transform="translate(-0.700562 -0.476562)" fill="#FFFFFF" fill-opacity="0"/>
	<g clip-path="url(#clip211_2053)">
		<path id="Vector" d="M37.58 6.95C37.58 6.92 37.58 6.89 37.58 6.86C37.58 6.83 37.58 6.81 37.58 6.79L37.29 4.75C37.25 4.5 37.14 4.27 36.98 4.09L36.93 4.03L36.84 3.94L31.93 -0.2L32.07 -0.07C31.95 -0.2 31.81 -0.31 31.65 -0.38C31.49 -0.45 31.32 -0.48 31.14 -0.48L29.65 -0.48C29.41 -0.49 29.17 -0.41 28.98 -0.27C28.78 -0.41 28.53 -0.48 28.28 -0.48L26.79 -0.48C26.6 -0.48 26.4 -0.44 26.23 -0.34C26.06 -0.25 25.92 -0.11 25.82 0.05C25.67 0.29 25.61 0.57 25.66 0.85L25.84 2.13C25.72 2.06 25.58 2.03 25.44 2.03L18.22 2.03C17.96 2.03 17.71 2.1 17.49 2.24C17.28 2.37 17.11 2.56 17 2.78L16.45 2.31C16.23 2.11 15.93 2 15.64 2L4.31 2C4.05 2.01 3.79 2.08 3.57 2.21C3.27 2.39 3.04 2.67 2.95 3.01L-0.65 14.8C-0.72 15 -0.72 15.2 -0.67 15.4C-0.61 15.6 -0.5 15.78 -0.34 15.91C-0.3 15.95 -0.26 15.98 -0.21 16.01C-0.21 16.01 -0.29 15.96 -0.33 15.92L4.58 20.07C4.79 20.26 5.06 20.37 5.35 20.37L16.76 20.37C17.02 20.36 17.28 20.29 17.5 20.15C17.62 20.09 17.74 20 17.83 19.89L17.87 19.84L17.94 19.76L17.98 19.67L18.52 20.12C18.72 20.3 18.99 20.4 19.26 20.4L30.7 20.4C30.97 20.39 31.22 20.32 31.44 20.19C31.56 20.11 31.68 20.03 31.77 19.92L31.81 19.87L31.88 19.79C31.91 19.74 31.94 19.69 31.97 19.63C32 19.58 32.02 19.53 32.03 19.48L35.31 8.71L35.31 8.61C35.32 8.58 35.32 8.54 35.31 8.5L35.31 8.43C35.32 8.41 35.32 8.38 35.31 8.36C35.32 8.31 35.32 8.26 35.31 8.21L36.37 8.21C36.46 8.22 36.55 8.22 36.64 8.21L36.72 8.21C36.78 8.19 36.83 8.17 36.89 8.14L36.97 8.14L37.11 8.03L37.18 7.98L37.29 7.83L37.29 7.79L37.37 7.65C37.37 7.63 37.37 7.6 37.37 7.57C37.37 7.56 37.37 7.55 37.37 7.53C37.39 7.49 37.4 7.44 37.41 7.39C37.41 7.37 37.41 7.36 37.41 7.34C37.41 7.32 37.41 7.29 37.41 7.27C37.41 7.27 37.58 6.96 37.58 6.95Z" fill="#000000" fill-opacity="1.000000" fill-rule="nonzero"/>
		<path id="Vector" d="M15.97 2.91C16.01 2.95 16.04 3 16.05 3.05C16.07 3.11 16.06 3.17 16.04 3.22L12.45 15.01C12.41 15.14 12.31 15.24 12.19 15.31C12.09 15.37 11.98 15.41 11.86 15.42L0.45 15.42C0.35 15.42 0.26 15.38 0.19 15.31C0.15 15.27 0.12 15.22 0.11 15.17C0.1 15.12 0.1 15.06 0.12 15.01L3.72 3.22C3.76 3.09 3.85 2.98 3.97 2.91C4.07 2.85 4.18 2.81 4.3 2.81L15.71 2.81C15.8 2.81 15.9 2.85 15.97 2.91ZM10.01 12.63L12.16 5.6L6.15 5.6L4.01 12.63L10.01 12.63ZM26.86 3.03C26.9 3.07 26.94 3.11 27 3.13C27.05 3.16 27.11 3.17 27.17 3.16L28.66 3.16C28.71 3.17 28.77 3.15 28.82 3.13C28.87 3.1 28.91 3.06 28.94 3.01C28.96 2.98 28.98 2.94 28.99 2.89C29 2.85 29 2.8 29 2.76L28.7 0.66C28.68 0.57 28.63 0.48 28.56 0.4C28.52 0.36 28.47 0.32 28.42 0.3C28.36 0.27 28.3 0.26 28.24 0.27L26.76 0.27C26.7 0.27 26.65 0.28 26.6 0.31C26.55 0.33 26.51 0.37 26.48 0.42C26.42 0.53 26.39 0.6 26.42 0.66L26.72 2.76C26.73 2.86 26.78 2.96 26.86 3.03ZM31.56 0.65C31.54 0.55 31.49 0.46 31.42 0.38C31.38 0.34 31.33 0.31 31.28 0.28C31.23 0.26 31.17 0.25 31.11 0.25L29.62 0.25C29.56 0.25 29.51 0.26 29.46 0.29C29.41 0.31 29.37 0.35 29.34 0.4C29.29 0.47 29.27 0.56 29.28 0.65L29.58 2.74C29.6 2.84 29.65 2.94 29.72 3.01C29.76 3.06 29.8 3.09 29.86 3.12C29.91 3.14 29.97 3.15 30.03 3.15L31.52 3.15C31.58 3.15 31.63 3.14 31.68 3.11C31.73 3.08 31.77 3.04 31.8 3C31.83 2.96 31.85 2.92 31.86 2.88C31.87 2.83 31.87 2.79 31.86 2.74L31.56 0.65ZM25.55 3.82L25.41 2.79L18.22 2.79C18.11 2.8 18 2.83 17.9 2.89C17.84 2.93 17.79 2.97 17.75 3.02C17.71 3.08 17.68 3.14 17.67 3.2L17.07 5.17C17.05 5.22 17.04 5.28 17.05 5.33C17.05 5.39 17.08 5.44 17.12 5.48C17.19 5.54 17.28 5.58 17.37 5.58L26.1 5.58L23.96 12.62L15.25 12.62C15.13 12.62 15.02 12.65 14.93 12.71C14.82 12.78 14.73 12.89 14.7 13.02L14.09 14.99C14.07 15.04 14.06 15.1 14.07 15.15C14.08 15.2 14.11 15.25 14.14 15.29C14.21 15.36 14.3 15.4 14.4 15.4L25.84 15.4C25.95 15.39 26.07 15.36 26.17 15.29C26.29 15.23 26.38 15.12 26.42 14.99L29.71 4.22L26.01 4.22C25.95 4.22 25.89 4.21 25.83 4.19C25.78 4.17 25.73 4.14 25.69 4.09C25.62 4.02 25.58 3.93 25.55 3.84L25.55 3.82Z" fill="#FFFFFF" fill-opacity="1.000000" fill-rule="nonzero"/>
	</g>
</svg>
