<svg width="133.000000" height="21.000000" viewBox="0 0 133 21" fill="none" xmlns="http://www.w3.org/2000/svg" xmlns:xlink="http://www.w3.org/1999/xlink">
	<desc>
			Created with Pixso.
	</desc>
	<defs/>
	<rect id="Icon" rx="-0.430283" width="29.259260" height="19.793028" transform="translate(0.281785 0.160020)" fill="#FFFFFF" fill-opacity="0"/>
	<path id="Vector" d="M16.01 11.03L11.37 18.97L6.73 11.03L16.01 11.03ZM17.26 10.32L5.49 10.32L11.37 20.38L17.26 10.32Z" fill="#FFFFFF" fill-opacity="1.000000" fill-rule="nonzero"/>
	<path id="Vector" d="M24.08 1.15L28.72 9.09L19.44 9.09L24.08 1.15ZM24.08 -0.28L18.19 9.79L29.97 9.79L24.08 -0.28Z" fill="#FFFFFF" fill-opacity="1.000000" fill-rule="nonzero"/>
	<path id="Vector" d="M-0.15 -0.28L4.78 8.62L10.18 -0.05L-0.15 -0.28Z" fill="#4CAF4F" fill-opacity="1.000000" fill-rule="nonzero"/>
	<path id="Vector" d="M11.37 0.5L16.55 9.35L6.19 9.35L11.37 0.5Z" fill="#4CAF4F" fill-opacity="1.000000" fill-rule="nonzero"/>
	<path id="Vector" d="M17.89 11.29L23.07 20.38L12.46 20.38L17.72 11.29L17.89 11.29Z" fill="#4CAF4F" fill-opacity="1.000000" fill-rule="nonzero"/>
	<path id="Vector" d="M19.01 10.73L24.08 19.69L29.22 10.73L19.01 10.73Z" fill="#4CAF4F" fill-opacity="1.000000" fill-rule="nonzero"/>
	<path id="Nexcent" d="M51.51 1.16L51.51 18.69L48.31 18.69L40.68 7.66L40.56 7.66L40.56 18.69L36.85 18.69L36.85 1.16L40.1 1.16L47.67 12.18L47.82 12.18L47.82 1.16L51.51 1.16ZM126.44 2.39L130.08 2.39L130.08 5.54L132.56 5.54L132.56 8.28L130.08 8.28L130.08 14.65C130.08 14.98 130.14 15.25 130.24 15.43C130.34 15.62 130.48 15.74 130.67 15.82C130.85 15.89 131.07 15.93 131.32 15.93C131.49 15.93 131.66 15.92 131.83 15.89C132 15.85 132.13 15.83 132.22 15.81L132.8 18.52C132.61 18.58 132.36 18.65 132.03 18.72C131.7 18.8 131.29 18.85 130.82 18.87C129.94 18.9 129.17 18.78 128.51 18.51C127.85 18.25 127.34 17.83 126.98 17.26C126.62 16.71 126.44 16.01 126.44 15.17C126.44 15.15 126.44 15.14 126.44 15.13L126.44 8.28L124.64 8.28L124.64 5.54L126.44 5.54L126.44 2.39ZM60.49 18.94C59.14 18.94 57.98 18.67 57 18.12C56.03 17.57 55.28 16.79 54.76 15.78C54.23 14.76 53.97 13.56 53.97 12.17C53.97 10.82 54.23 9.64 54.76 8.61Q55.24 7.68 55.96 7Q56.42 6.56 56.97 6.23Q57 6.21 57.02 6.2Q57.02 6.2 57.03 6.19Q58.45 5.37 60.35 5.37Q61.65 5.37 62.77 5.79C63.52 6.06 64.18 6.48 64.74 7.03C65.3 7.58 65.74 8.28 66.05 9.12Q66.52 10.37 66.52 12.05L66.52 13.05L57.57 13.05L57.57 13.05C57.57 13.71 57.69 14.27 57.93 14.74C58.18 15.21 58.52 15.58 58.97 15.84C59.41 16.09 59.94 16.22 60.55 16.22C60.96 16.22 61.33 16.16 61.66 16.05C62 15.94 62.29 15.76 62.53 15.54C62.77 15.31 62.95 15.03 63.08 14.7L66.45 14.92C66.28 15.73 65.92 16.44 65.39 17.04C64.87 17.64 64.19 18.11 63.36 18.45Q62.12 18.94 60.49 18.94ZM87.97 18.94C86.62 18.94 85.47 18.66 84.5 18.09C83.53 17.51 82.79 16.71 82.27 15.69Q81.5 14.16 81.5 12.17C81.5 10.82 81.76 9.64 82.28 8.62C82.81 7.6 83.55 6.81 84.51 6.24C85.48 5.66 86.62 5.37 87.95 5.37C89.1 5.37 90.1 5.58 90.97 6C91.83 6.41 92.51 7 93.01 7.75C93.51 8.5 93.79 9.39 93.84 10.4L90.4 10.4C90.3 9.75 90.05 9.22 89.63 8.82C89.22 8.41 88.68 8.21 88.01 8.21Q87.42 8.21 86.93 8.44L86.93 8.44Q86.72 8.53 86.53 8.67C86.12 8.98 85.79 9.42 85.56 10C85.32 10.58 85.21 11.29 85.21 12.11C85.21 12.95 85.32 13.67 85.55 14.25C85.78 14.84 86.11 15.29 86.53 15.6C86.96 15.9 87.45 16.06 88.01 16.06C88.43 16.06 88.8 15.97 89.13 15.8C89.47 15.63 89.75 15.38 89.96 15.06C90.19 14.73 90.33 14.33 90.4 13.87L93.84 13.87C93.78 14.87 93.51 15.76 93.02 16.52C92.53 17.28 91.86 17.87 91.01 18.3C90.15 18.73 89.14 18.94 87.97 18.94ZM102.17 18.94C100.81 18.94 99.65 18.67 98.67 18.12C97.7 17.57 96.96 16.79 96.43 15.78C95.91 14.76 95.64 13.56 95.64 12.17C95.64 10.82 95.91 9.64 96.43 8.61C96.96 7.59 97.7 6.8 98.65 6.23C99.61 5.66 100.73 5.37 102.02 5.37C102.89 5.37 103.69 5.51 104.44 5.79Q105.12 6.04 105.69 6.43Q106.07 6.7 106.41 7.03Q107.26 7.86 107.73 9.12C108.04 9.95 108.2 10.93 108.2 12.05L108.2 13.05L99.25 13.05L99.25 13.05C99.25 13.71 99.37 14.27 99.61 14.74C99.85 15.21 100.2 15.58 100.64 15.84C101.09 16.09 101.61 16.22 102.23 16.22C102.63 16.22 103 16.16 103.34 16.05C103.67 15.94 103.96 15.76 104.2 15.54C104.44 15.31 104.62 15.03 104.75 14.7L108.12 14.92C107.95 15.73 107.6 16.44 107.07 17.04C106.54 17.64 105.86 18.11 105.03 18.45C104.2 18.78 103.25 18.94 102.17 18.94ZM114.22 11.09L114.22 18.69L110.58 18.69L110.58 5.54L114.05 5.54L114.05 7.86L114.2 7.86C114.5 7.1 114.98 6.49 115.67 6.05C116.35 5.6 117.18 5.37 118.16 5.37C119.07 5.37 119.87 5.57 120.55 5.97C121.22 6.37 121.75 6.94 122.13 7.68C122.5 8.42 122.69 9.3 122.69 10.32L122.69 18.69L119.05 18.69L119.05 10.97C119.05 10.96 119.05 10.95 119.05 10.93C119.05 10.15 118.84 9.53 118.43 9.08C118.02 8.63 117.44 8.4 116.71 8.4C116.22 8.4 115.79 8.51 115.41 8.72C115.04 8.93 114.75 9.24 114.54 9.64C114.33 10.04 114.23 10.52 114.22 11.09ZM71.71 5.54L74.13 10.14L76.6 5.54L80.34 5.54L76.53 12.11L80.44 18.69L76.72 18.69L74.13 14.14L71.58 18.69L67.81 18.69L71.71 12.11L67.95 5.54L71.71 5.54ZM57.58 10.79L63.09 10.79C63.09 10.26 62.98 9.8 62.75 9.39C62.52 8.99 62.21 8.67 61.8 8.44C61.4 8.21 60.94 8.09 60.41 8.09C59.85 8.09 59.36 8.22 58.93 8.48Q58.61 8.67 58.36 8.93Q58.12 9.18 57.94 9.5C57.72 9.88 57.6 10.32 57.58 10.79ZM99.25 10.79L104.77 10.79C104.77 10.26 104.65 9.8 104.42 9.39C104.2 8.99 103.88 8.67 103.47 8.44C103.08 8.21 102.61 8.09 102.08 8.09C101.53 8.09 101.04 8.22 100.61 8.48C100.19 8.73 99.85 9.07 99.61 9.5C99.39 9.88 99.27 10.32 99.25 10.79Z" fill="#FFFFFF" fill-opacity="1.000000" fill-rule="evenodd"/>
</svg>
