<svg width="107.000000" height="16.000000" viewBox="0 0 107 16" fill="none" xmlns="http://www.w3.org/2000/svg" xmlns:xlink="http://www.w3.org/1999/xlink">
	<desc>
			Created with Pixso.
	</desc>
	<defs/>
	<rect id="Icon" width="24.362432" height="16.705667" transform="translate(-0.765961 -0.902100)" fill="#FFFFFF" fill-opacity="0"/>
	<path id="Vector" d="M12.31 8.23L8.55 14.66L4.8 8.23L12.31 8.23ZM13.31 7.66L3.79 7.66L8.55 15.8L13.31 7.66Z" fill="#263238" fill-opacity="1.000000" fill-rule="nonzero"/>
	<path id="Vector" d="M18.83 0.24L22.58 6.67L15.08 6.67L18.83 0.24ZM18.83 -0.91L14.07 7.23L23.59 7.23L18.83 -0.91Z" fill="#263238" fill-opacity="1.000000" fill-rule="nonzero"/>
	<path id="Vector" d="M-0.77 -0.91L3.22 6.29L7.58 -0.73L-0.77 -0.91Z" fill="#4CAF4F" fill-opacity="1.000000" fill-rule="nonzero"/>
	<path id="Vector" d="M8.55 -0.28L12.74 6.88L4.36 6.88L8.55 -0.28Z" fill="#4CAF4F" fill-opacity="1.000000" fill-rule="nonzero"/>
	<path id="Vector" d="M13.82 8.44L18.01 15.8L9.43 15.8L13.69 8.44L13.82 8.44Z" fill="#4CAF4F" fill-opacity="1.000000" fill-rule="nonzero"/>
	<path id="Vector" d="M14.73 8L18.83 15.24L22.99 8L14.73 8Z" fill="#4CAF4F" fill-opacity="1.000000" fill-rule="nonzero"/>
	<path id="Nexcent" d="M41.02 0.25L41.02 14.43L38.43 14.43L32.26 5.51L32.16 5.51L32.16 14.43L29.16 14.43L29.16 0.25L31.79 0.25L37.91 9.17L38.03 9.17L38.03 0.25L41.02 0.25ZM101.62 1.25L104.57 1.25L104.57 3.8L106.57 3.8L106.57 6.01L104.57 6.01L104.57 11.16C104.57 11.43 104.61 11.65 104.7 11.8C104.78 11.95 104.89 12.05 105.04 12.11C105.19 12.17 105.37 12.2 105.57 12.2C105.71 12.2 105.85 12.19 105.98 12.17C106.12 12.14 106.23 12.12 106.3 12.1L106.77 14.3Q106.54 14.37 106.14 14.46C105.88 14.52 105.55 14.56 105.17 14.57C104.46 14.6 103.83 14.51 103.3 14.29C102.77 14.07 102.35 13.74 102.06 13.28C101.77 12.83 101.62 12.26 101.62 11.58C101.62 11.57 101.62 11.56 101.62 11.55L101.62 6.01L100.17 6.01L100.17 3.8L101.62 3.8L101.62 1.25ZM48.28 14.64C47.19 14.64 46.25 14.42 45.46 13.97C44.67 13.52 44.07 12.89 43.64 12.08Q43.01 10.84 43.01 9.16Q43.01 7.52 43.64 6.28Q44.03 5.53 44.61 4.97L44.61 4.97Q44.99 4.62 45.44 4.35Q45.45 4.34 45.46 4.34Q45.47 4.33 45.48 4.33Q46.63 3.66 48.16 3.66C48.87 3.66 49.52 3.77 50.12 4Q50.67 4.2 51.13 4.52Q51.44 4.73 51.71 5C52.17 5.45 52.53 6.01 52.78 6.69Q53.16 7.7 53.16 9.06L53.16 9.87L45.92 9.87L45.92 9.87C45.92 10.4 46.02 10.86 46.21 11.24C46.41 11.62 46.69 11.92 47.05 12.12C47.41 12.33 47.84 12.44 48.33 12.44C48.66 12.44 48.96 12.39 49.23 12.3C49.5 12.21 49.73 12.07 49.93 11.88C50.12 11.7 50.27 11.47 50.37 11.2L53.1 11.38C52.96 12.04 52.68 12.61 52.25 13.1C51.82 13.58 51.27 13.96 50.6 14.24C49.93 14.5 49.16 14.64 48.28 14.64ZM70.51 14.64C69.42 14.64 68.48 14.41 67.7 13.94C66.92 13.48 66.32 12.83 65.9 12.01Q65.28 10.77 65.28 9.16Q65.28 7.52 65.91 6.29C66.33 5.46 66.93 4.82 67.71 4.36C68.49 3.89 69.42 3.66 70.49 3.66C71.42 3.66 72.23 3.83 72.93 4.16C73.63 4.5 74.18 4.97 74.59 5.58C74.99 6.19 75.22 6.91 75.26 7.73L72.47 7.73C72.4 7.2 72.19 6.77 71.85 6.45C71.52 6.12 71.08 5.96 70.54 5.96C70.09 5.96 69.69 6.08 69.35 6.33C69.01 6.58 68.75 6.93 68.56 7.4C68.37 7.87 68.27 8.44 68.27 9.11C68.27 9.79 68.37 10.37 68.55 10.84C68.74 11.32 69 11.68 69.35 11.93C69.69 12.18 70.09 12.3 70.54 12.3C70.88 12.3 71.18 12.24 71.45 12.1C71.72 11.96 71.95 11.76 72.12 11.49C72.3 11.23 72.42 10.91 72.47 10.53L75.26 10.53C75.21 11.34 74.99 12.06 74.59 12.68C74.2 13.29 73.66 13.77 72.97 14.12C72.27 14.46 71.45 14.64 70.51 14.64ZM81.99 14.64C80.9 14.64 79.95 14.42 79.17 13.97C78.38 13.52 77.78 12.89 77.35 12.08Q76.72 10.84 76.72 9.16Q76.72 7.52 77.35 6.28C77.78 5.46 78.37 4.81 79.14 4.35Q79.16 4.34 79.17 4.33Q79.18 4.33 79.19 4.33Q80.34 3.66 81.87 3.66C82.57 3.66 83.23 3.77 83.83 4C84.44 4.22 84.97 4.55 85.42 5C85.88 5.45 86.23 6.01 86.49 6.69C86.74 7.36 86.87 8.15 86.87 9.06L86.87 9.87L79.63 9.87L79.63 9.87C79.63 10.4 79.73 10.86 79.92 11.24C80.12 11.62 80.4 11.92 80.76 12.12C81.12 12.33 81.54 12.44 82.04 12.44C82.37 12.44 82.67 12.39 82.94 12.3C83.21 12.21 83.44 12.07 83.64 11.88C83.83 11.7 83.98 11.47 84.08 11.2L86.81 11.38C86.67 12.04 86.38 12.61 85.96 13.1C85.53 13.58 84.98 13.96 84.31 14.24C83.64 14.5 82.87 14.64 81.99 14.64ZM91.74 8.28L91.74 14.43L88.79 14.43L88.79 3.8L91.6 3.8L91.6 5.67L91.73 5.67C91.96 5.06 92.36 4.57 92.91 4.21C93.46 3.84 94.14 3.66 94.92 3.66C95.66 3.66 96.31 3.82 96.86 4.14C97.4 4.47 97.83 4.93 98.14 5.53C98.44 6.12 98.59 6.83 98.59 7.66L98.59 14.43L95.64 14.43L95.64 8.19C95.64 8.18 95.64 8.17 95.64 8.16C95.64 7.52 95.48 7.02 95.15 6.66C94.81 6.29 94.35 6.11 93.76 6.11C93.36 6.11 93.01 6.2 92.7 6.37C92.4 6.54 92.17 6.79 92 7.11C91.83 7.44 91.75 7.83 91.74 8.28ZM57.36 3.8L59.31 7.51L61.31 3.8L64.33 3.8L61.26 9.11L64.42 14.43L61.41 14.43L59.31 10.75L57.25 14.43L54.2 14.43L57.36 9.11L54.31 3.8L57.36 3.8ZM45.92 8.04L50.39 8.04C50.39 7.62 50.29 7.24 50.11 6.91C49.92 6.59 49.67 6.33 49.34 6.14C49.02 5.96 48.64 5.86 48.21 5.86C47.76 5.86 47.37 5.96 47.02 6.17Q46.76 6.33 46.56 6.54L46.56 6.54Q46.36 6.74 46.22 7C46.04 7.31 45.94 7.66 45.92 8.04ZM79.63 8.04L84.09 8.04C84.09 7.62 84 7.24 83.82 6.91C83.63 6.59 83.38 6.33 83.05 6.14C82.73 5.96 82.35 5.86 81.92 5.86C81.47 5.86 81.08 5.96 80.73 6.17C80.39 6.38 80.12 6.65 79.93 7C79.75 7.31 79.65 7.66 79.63 8.04Z" fill="#263238" fill-opacity="1.000000" fill-rule="evenodd"/>
</svg>


