<svg width="24" height="24" viewBox="0 0 24 24" fill="none" xmlns="http://www.w3.org/2000/svg">
  <path d="M12 4.5C7.30558 4.5 3.359 7.4795 1.5 12C3.359 16.5205 7.30558 19.5 12 19.5C16.6944 19.5 20.641 16.5205 22.5 12C20.641 7.4795 16.6944 4.5 12 4.5ZM12 17.25C9.1005 17.25 6.75 14.8995 6.75 12C6.75 9.1005 9.1005 6.75 12 6.75C14.8995 6.75 17.25 9.1005 17.25 12C17.25 14.8995 14.8995 17.25 12 17.25ZM12 8.25C10.205 8.25 8.75 9.705 8.75 12C8.75 14.295 10.205 15.75 12 15.75C13.795 15.75 15.25 14.295 15.25 12C15.25 9.705 13.795 8.25 12 8.25Z" fill="#61696c"/>
  <line x1="1" y1="20" x2="23" y2="5" stroke="white" stroke-width="2"/>
</svg>
