<svg width="23.000000" height="21.000000" viewBox="0 0 23 21" fill="none" xmlns="http://www.w3.org/2000/svg" xmlns:xlink="http://www.w3.org/1999/xlink">
	<desc>
			Created with Pixso.
	</desc>
	<defs/>
	<path id="Vector" d="M14.01 9.76C13.84 9.76 13.68 9.71 13.54 9.64L13.54 9.64C13.54 9.91 13.44 10.15 13.26 10.34C13.07 10.52 12.82 10.63 12.56 10.63C12.39 10.63 12.23 10.58 12.09 10.5C12.08 10.74 11.98 10.97 11.81 11.14C11.62 11.33 11.38 11.43 11.11 11.43C10.59 11.43 10.16 11.02 10.13 10.5C9.97 10.59 9.79 10.64 9.6 10.62C9.08 10.59 8.68 10.15 8.68 9.61L8.68 5.18L8.18 6.05C7.98 6.39 7.62 6.6 7.24 6.6C7.05 6.6 6.86 6.55 6.7 6.45C6.49 6.33 6.34 6.14 6.28 5.91C6.22 5.68 6.25 5.44 6.37 5.24C6.37 5.24 8.02 2.38 8.12 2.2C8.14 2.18 8.17 2.1 8.2 2.04C8.23 1.97 8.25 1.91 8.27 1.84C8.77 0.44 10 -0.43 11.49 -0.43C13.42 -0.43 14.99 1.27 14.99 3.36L14.99 8.77C14.99 9.04 14.89 9.29 14.7 9.47C14.52 9.66 14.27 9.76 14.01 9.76L14.01 9.76ZM11.49 0.09C10.21 0.09 9.19 0.81 8.77 2.02C8.74 2.1 8.71 2.17 8.68 2.25C8.58 2.46 8.58 2.46 8.55 2.5L8.55 2.49C8.41 2.75 8.01 3.44 6.82 5.5C6.78 5.58 6.76 5.68 6.79 5.78C6.81 5.87 6.87 5.95 6.96 6C7.22 6.15 7.57 6.05 7.72 5.79L8.72 4.07C8.77 3.97 8.89 3.92 9.01 3.95C9.12 3.98 9.2 4.08 9.2 4.2L9.2 9.61C9.2 9.87 9.4 10.09 9.63 10.1C9.77 10.11 9.9 10.06 9.99 9.97C10.08 9.88 10.13 9.77 10.13 9.64L10.13 6.1C10.13 5.96 10.24 5.84 10.39 5.84C10.53 5.84 10.65 5.96 10.65 6.1L10.65 10.45C10.65 10.7 10.86 10.91 11.11 10.91C11.24 10.91 11.35 10.86 11.44 10.77C11.53 10.69 11.57 10.57 11.57 10.45L11.57 6.1C11.57 5.96 11.69 5.84 11.84 5.84C11.98 5.84 12.1 5.96 12.1 6.1L12.1 9.6L12.1 9.64C12.1 9.9 12.3 10.1 12.56 10.1C12.68 10.1 12.8 10.06 12.89 9.97C12.97 9.88 13.02 9.77 13.02 9.64L13.02 6.1C13.02 5.96 13.14 5.84 13.28 5.84C13.43 5.84 13.55 5.96 13.55 6.1L13.54 8.77C13.54 9.03 13.75 9.24 14.01 9.24C14.13 9.24 14.25 9.19 14.33 9.1C14.42 9.01 14.47 8.9 14.47 8.77L14.47 3.36C14.47 1.56 13.13 0.09 11.49 0.09L11.49 0.09Z" fill="#4CAF4F" fill-opacity="1.000000" fill-rule="nonzero"/>
	<path id="Vector" d="M14.47 9.64C14.33 9.72 14.17 9.76 14.01 9.76L14.01 9.76L14.01 9.76L14.01 9.76C13.99 9.76 13.97 9.76 13.94 9.76C13.8 9.75 13.67 9.7 13.54 9.64L13.54 9.64C13.54 9.79 13.51 9.92 13.46 10.05C13.41 10.16 13.34 10.25 13.26 10.34C13.21 10.38 13.16 10.42 13.11 10.46C13.05 10.5 13 10.53 12.94 10.55C12.82 10.6 12.69 10.63 12.56 10.63C12.54 10.63 12.51 10.63 12.49 10.62C12.35 10.61 12.21 10.57 12.09 10.5C12.09 10.57 12.08 10.63 12.06 10.69C12.05 10.76 12.02 10.84 11.98 10.91C11.94 10.99 11.88 11.07 11.81 11.14C11.77 11.18 11.73 11.22 11.69 11.25C11.52 11.37 11.32 11.43 11.11 11.43C10.89 11.43 10.69 11.36 10.53 11.24C10.41 11.15 10.31 11.04 10.24 10.91C10.18 10.78 10.14 10.65 10.13 10.5C10.01 10.57 9.87 10.61 9.73 10.62C9.69 10.63 9.64 10.63 9.6 10.62C9.49 10.62 9.39 10.59 9.29 10.55C8.93 10.4 8.68 10.03 8.68 9.61L8.68 5.18L8.28 5.88L8.18 6.05C8.07 6.23 7.93 6.37 7.75 6.47C7.6 6.55 7.42 6.6 7.24 6.6C7.05 6.6 6.86 6.55 6.7 6.45C6.49 6.33 6.34 6.14 6.28 5.91C6.22 5.68 6.25 5.44 6.37 5.24C6.37 5.24 8.02 2.38 8.12 2.2C8.13 2.19 8.14 2.17 8.15 2.14C8.16 2.11 8.18 2.07 8.2 2.04C8.23 1.97 8.25 1.91 8.27 1.84C8.35 1.64 8.44 1.44 8.54 1.26C9.14 0.2 10.22 -0.43 11.49 -0.43C11.86 -0.43 12.22 -0.37 12.56 -0.25C13.97 0.24 14.99 1.67 14.99 3.36L14.99 8.77C14.99 8.79 14.99 8.81 14.99 8.83C14.98 9.07 14.88 9.3 14.7 9.47C14.63 9.54 14.56 9.6 14.47 9.64ZM14.46 8.83C14.45 8.93 14.41 9.03 14.33 9.1C14.25 9.19 14.13 9.24 14.01 9.24L14.01 9.24C13.99 9.24 13.97 9.23 13.95 9.23C13.72 9.2 13.54 9.01 13.54 8.77L13.54 8.7L13.54 8.59L13.55 6.72L13.55 6.1C13.55 6.09 13.54 6.07 13.54 6.05C13.52 5.93 13.41 5.84 13.28 5.84C13.15 5.84 13.05 5.94 13.03 6.06C13.02 6.07 13.02 6.09 13.02 6.1L13.02 9.64C13.02 9.68 13.02 9.71 13.01 9.74C12.99 9.83 12.95 9.91 12.89 9.97C12.8 10.06 12.68 10.1 12.56 10.1C12.54 10.1 12.52 10.1 12.5 10.1C12.34 10.08 12.2 9.97 12.13 9.82C12.11 9.77 12.1 9.71 12.1 9.64L12.1 9.6L12.1 9.57L12.1 9.45L12.1 6.72L12.1 6.1C12.1 6.09 12.1 6.07 12.09 6.06C12.07 5.94 11.97 5.84 11.84 5.84C11.71 5.84 11.6 5.94 11.58 6.06C11.58 6.07 11.57 6.09 11.57 6.1L11.57 10.45C11.57 10.5 11.57 10.55 11.55 10.6C11.54 10.63 11.52 10.66 11.51 10.69C11.49 10.72 11.47 10.75 11.44 10.77C11.35 10.86 11.24 10.91 11.11 10.91C10.91 10.91 10.74 10.78 10.68 10.6C10.66 10.55 10.65 10.5 10.65 10.45L10.65 10.38L10.65 9.17L10.65 6.72L10.65 6.1C10.65 6.09 10.65 6.07 10.65 6.06C10.63 5.94 10.52 5.84 10.39 5.84C10.26 5.84 10.16 5.93 10.13 6.05C10.13 6.07 10.13 6.09 10.13 6.1L10.13 9.64C10.13 9.77 10.08 9.88 9.99 9.97C9.92 10.04 9.82 10.09 9.72 10.1C9.69 10.1 9.66 10.1 9.63 10.1C9.4 10.09 9.2 9.87 9.2 9.61L9.2 4.2C9.2 4.08 9.12 3.98 9.01 3.95C8.91 3.92 8.8 3.96 8.74 4.04C8.73 4.05 8.72 4.06 8.72 4.07L8.41 4.6L8.28 4.83L8.08 5.18L7.75 5.74L7.72 5.79C7.71 5.82 7.69 5.84 7.68 5.86C7.51 6.07 7.19 6.13 6.96 6C6.87 5.95 6.81 5.87 6.79 5.78C6.76 5.68 6.78 5.58 6.82 5.5C6.87 5.42 6.91 5.35 6.96 5.27C7.4 4.5 7.73 3.94 7.97 3.52C8.01 3.45 8.05 3.38 8.08 3.32C8.35 2.86 8.48 2.62 8.55 2.49L8.55 2.5L8.55 2.5L8.56 2.49C8.58 2.46 8.59 2.44 8.68 2.25C8.71 2.17 8.74 2.1 8.77 2.02C8.82 1.88 8.88 1.74 8.94 1.61C9.28 0.96 9.82 0.49 10.48 0.26C10.79 0.15 11.13 0.09 11.49 0.09L11.49 0.09L11.49 0.09C11.81 0.09 12.12 0.15 12.41 0.25C13.6 0.68 14.47 1.91 14.47 3.36L14.47 5.99L14.47 8.7L14.47 8.77C14.47 8.79 14.47 8.81 14.46 8.83Z" fill="#4CAF4F" fill-opacity="1.000000" fill-rule="evenodd"/>
	<path id="Vector" d="M3.72 13.52L7.52 11.24C7.98 10.97 8.56 11.08 8.86 11.51C8.97 11.66 9.02 11.84 9.03 12.03C9.17 11.95 9.32 11.91 9.48 11.91C9.56 11.91 9.64 11.92 9.72 11.94C9.98 12.01 10.19 12.16 10.33 12.39C10.46 12.62 10.5 12.88 10.44 13.14C10.38 13.37 10.24 13.57 10.04 13.71C10.18 13.79 10.3 13.9 10.38 14.04C10.52 14.27 10.56 14.54 10.49 14.79C10.43 15.05 10.27 15.26 10.05 15.4L10.04 15.4C10.18 15.48 10.3 15.59 10.38 15.73C10.52 15.96 10.56 16.22 10.5 16.48C10.43 16.73 10.27 16.95 10.05 17.08L5.41 19.87C4.54 20.39 3.54 20.57 2.59 20.37C1.63 20.18 0.83 19.62 0.35 18.82C-0.42 17.54 -0.3 16.04 0.65 14.89C0.69 14.83 0.73 14.78 0.77 14.73C0.81 14.67 0.86 14.6 0.88 14.57C0.98 14.4 2.58 11.51 2.58 11.51C2.74 11.22 3.04 11.05 3.36 11.05C3.5 11.05 3.65 11.09 3.79 11.17C3.95 11.26 4.09 11.39 4.19 11.55C4.39 11.89 4.39 12.3 4.21 12.64L3.72 13.52ZM3.74 11.82C3.69 11.74 3.62 11.67 3.53 11.62C3.36 11.53 3.13 11.59 3.04 11.76C1.89 13.83 1.5 14.54 1.35 14.79L1.35 14.79C1.34 14.83 1.34 14.83 1.2 15.03C1.15 15.09 1.1 15.16 1.05 15.22C0.23 16.21 0.14 17.45 0.8 18.55C1.2 19.23 1.88 19.69 2.69 19.86C3.51 20.03 4.38 19.87 5.14 19.42L9.78 16.63C9.88 16.57 9.96 16.47 9.99 16.35C10.02 16.23 10 16.11 9.93 16C9.8 15.78 9.52 15.71 9.3 15.84L7.01 17.22C6.89 17.29 6.73 17.25 6.65 17.13C6.58 17 6.62 16.84 6.74 16.77L9.03 15.39L9.78 14.95C9.88 14.88 9.96 14.78 9.99 14.66C10.02 14.54 10 14.42 9.93 14.31C9.8 14.1 9.52 14.03 9.3 14.16L6.27 15.98C6.14 16.05 5.98 16.01 5.91 15.89C5.83 15.76 5.87 15.6 6 15.53L9.72 13.29C9.83 13.23 9.9 13.13 9.93 13.01C9.96 12.89 9.94 12.77 9.88 12.66C9.82 12.55 9.72 12.48 9.6 12.45C9.48 12.42 9.35 12.44 9.25 12.5L8.56 12.91C8.56 12.91 8.56 12.92 8.56 12.92L8.56 12.92L5.52 14.73C5.4 14.81 5.24 14.77 5.16 14.64C5.09 14.52 5.13 14.36 5.25 14.29L8.29 12.47C8.39 12.4 8.47 12.3 8.5 12.18C8.53 12.05 8.51 11.92 8.43 11.81C8.29 11.61 8 11.56 7.79 11.69L3.15 14.47C3.05 14.53 2.92 14.52 2.83 14.44C2.75 14.35 2.73 14.22 2.79 14.12L3.75 12.38C3.85 12.21 3.84 12 3.74 11.82L3.74 11.82Z" fill="#4CAF4F" fill-opacity="1.000000" fill-rule="nonzero"/>
	<path id="Vector" d="M5.21 12.63L7.52 11.24C7.88 11.02 8.33 11.05 8.64 11.28C8.72 11.34 8.8 11.42 8.86 11.51C8.88 11.54 8.91 11.58 8.93 11.62C8.99 11.75 9.02 11.89 9.03 12.03C9.16 11.96 9.29 11.92 9.43 11.91C9.45 11.91 9.46 11.91 9.48 11.91C9.56 11.91 9.64 11.92 9.72 11.94C9.77 11.95 9.82 11.97 9.86 11.99C10.06 12.07 10.22 12.21 10.33 12.39C10.44 12.57 10.48 12.78 10.47 12.98C10.46 13.03 10.45 13.09 10.44 13.14C10.42 13.23 10.38 13.32 10.33 13.41C10.25 13.53 10.16 13.63 10.04 13.71C10.16 13.78 10.26 13.87 10.35 13.99C10.36 14.01 10.37 14.03 10.38 14.04C10.45 14.16 10.49 14.28 10.51 14.4C10.52 14.47 10.53 14.54 10.52 14.6C10.52 14.67 10.51 14.73 10.49 14.79C10.47 14.91 10.42 15.01 10.35 15.11C10.27 15.23 10.17 15.32 10.05 15.4L10.04 15.4C10.16 15.47 10.27 15.56 10.35 15.68C10.36 15.7 10.37 15.71 10.38 15.73C10.46 15.87 10.51 16.01 10.52 16.16C10.52 16.17 10.52 16.18 10.52 16.19C10.53 16.29 10.52 16.38 10.5 16.48C10.43 16.73 10.27 16.95 10.05 17.08L5.41 19.87C4.54 20.39 3.54 20.57 2.59 20.37C1.63 20.18 0.83 19.62 0.35 18.82C-0.29 17.75 -0.32 16.52 0.25 15.48C0.36 15.27 0.49 15.08 0.65 14.89C0.69 14.83 0.73 14.78 0.77 14.73C0.79 14.69 0.82 14.66 0.84 14.63C0.86 14.61 0.87 14.59 0.88 14.57C0.96 14.42 2.19 12.21 2.51 11.64C2.55 11.56 2.58 11.51 2.58 11.51C2.74 11.22 3.04 11.05 3.36 11.05C3.5 11.05 3.65 11.09 3.79 11.17C3.95 11.26 4.09 11.39 4.19 11.55L4.19 11.55C4.28 11.71 4.33 11.89 4.34 12.06C4.34 12.13 4.34 12.2 4.33 12.27C4.31 12.4 4.27 12.52 4.21 12.64L4.11 12.81L3.72 13.52L4.41 13.1L5.21 12.63ZM7.75 11.71L4.8 13.48L4.68 13.55L4.25 13.81L3.9 14.02L3.67 14.16L3.15 14.47C3.05 14.53 2.92 14.52 2.83 14.44C2.75 14.35 2.73 14.22 2.79 14.12L3.05 13.65L3.08 13.58L3.21 13.35L3.41 13L3.72 12.44L3.75 12.38C3.76 12.36 3.77 12.34 3.78 12.31C3.84 12.15 3.83 11.97 3.74 11.82L3.74 11.82C3.69 11.74 3.62 11.67 3.53 11.62C3.5 11.6 3.46 11.59 3.42 11.58C3.27 11.56 3.11 11.63 3.04 11.76C2.99 11.84 2.95 11.92 2.91 11.99C2.89 12.04 2.86 12.08 2.84 12.12C2.44 12.84 2.15 13.37 1.93 13.76C1.89 13.83 1.86 13.89 1.83 13.95C1.56 14.42 1.42 14.66 1.35 14.79L1.35 14.79L1.35 14.79L1.35 14.79C1.34 14.83 1.34 14.83 1.2 15.03C1.15 15.09 1.1 15.16 1.05 15.22C0.95 15.34 0.86 15.47 0.78 15.6C0.22 16.52 0.22 17.59 0.8 18.55C1.2 19.23 1.88 19.69 2.69 19.86C3.51 20.03 4.38 19.87 5.14 19.42L7.39 18.06L9.72 16.67L9.78 16.63C9.88 16.57 9.96 16.47 9.99 16.35C10.02 16.23 10 16.11 9.93 16C9.93 15.98 9.91 15.97 9.9 15.95C9.76 15.77 9.5 15.72 9.3 15.84L9.24 15.88L9.14 15.94L7.54 16.9L7.01 17.22C7 17.23 6.98 17.23 6.97 17.24C6.85 17.28 6.72 17.24 6.65 17.13C6.59 17.02 6.61 16.88 6.71 16.79C6.72 16.78 6.73 16.78 6.74 16.77L7.27 16.45L9.03 15.39L9.71 14.98L9.78 14.95C9.81 14.93 9.83 14.91 9.86 14.89C9.92 14.83 9.97 14.75 9.99 14.66C10.02 14.54 10 14.42 9.93 14.31C9.92 14.3 9.91 14.28 9.9 14.27C9.76 14.09 9.5 14.04 9.3 14.16L9.24 14.19L9.14 14.25L6.8 15.66L6.27 15.98C6.25 15.98 6.24 15.99 6.23 16C6.11 16.04 5.98 16 5.91 15.89C5.84 15.78 5.87 15.64 5.96 15.55C5.97 15.54 5.99 15.53 6 15.53L6.53 15.21L8.8 13.84L8.95 13.76L8.95 13.76L9.03 13.71L9.11 13.66L9.11 13.66L9.66 13.33L9.72 13.29C9.77 13.27 9.8 13.23 9.84 13.19C9.88 13.14 9.91 13.08 9.93 13.01C9.96 12.89 9.94 12.77 9.88 12.66C9.82 12.55 9.72 12.48 9.6 12.45C9.53 12.43 9.46 12.43 9.39 12.45C9.34 12.46 9.29 12.47 9.25 12.5L9.19 12.54L8.56 12.91L8.56 12.92L8.56 12.92L6.05 14.42L5.52 14.73C5.51 14.74 5.5 14.75 5.48 14.76C5.37 14.8 5.23 14.76 5.16 14.64C5.1 14.54 5.12 14.4 5.21 14.32C5.23 14.3 5.24 14.29 5.25 14.29L5.78 13.97L8.12 12.56L8.2 12.52L8.29 12.47L8.29 12.47C8.39 12.4 8.47 12.3 8.5 12.18C8.51 12.12 8.52 12.05 8.5 11.99L8.5 11.99L8.5 11.99C8.5 11.95 8.49 11.92 8.47 11.88C8.46 11.86 8.45 11.83 8.43 11.81C8.29 11.61 8 11.56 7.79 11.69L7.75 11.71Z" fill="#4CAF4F" fill-opacity="1.000000" fill-rule="evenodd"/>
	<path id="Vector" d="M21.88 18.82C21.39 19.62 20.6 20.18 19.64 20.37C18.69 20.57 17.69 20.39 16.82 19.87L12.18 17.08C11.95 16.95 11.79 16.73 11.73 16.48C11.67 16.22 11.71 15.96 11.84 15.73C11.92 15.59 12.04 15.48 12.18 15.4L12.18 15.4C11.95 15.26 11.79 15.05 11.73 14.79C11.67 14.54 11.71 14.27 11.84 14.04C11.93 13.9 12.05 13.79 12.18 13.71C11.99 13.57 11.84 13.37 11.79 13.14C11.72 12.88 11.76 12.62 11.9 12.39C12.03 12.16 12.25 12.01 12.5 11.94C12.58 11.92 12.66 11.91 12.74 11.91C12.9 11.91 13.05 11.95 13.2 12.03C13.2 11.84 13.26 11.66 13.37 11.51C13.66 11.08 14.25 10.97 14.71 11.24L18.51 13.52L18.02 12.64C17.83 12.3 17.84 11.89 18.04 11.55C18.13 11.39 18.27 11.26 18.44 11.16C18.57 11.09 18.72 11.05 18.87 11.05C19.18 11.05 19.48 11.22 19.65 11.51C20.21 12.53 21.27 14.44 21.35 14.57C21.36 14.6 21.41 14.67 21.45 14.72C21.49 14.78 21.53 14.83 21.58 14.89C22.53 16.04 22.64 17.54 21.88 18.82L21.88 18.82ZM21.17 15.22C21.12 15.16 21.07 15.09 21.02 15.03C20.88 14.82 20.88 14.82 20.87 14.77C20.7 14.49 20.3 13.77 19.19 11.76C19.09 11.59 18.87 11.52 18.69 11.62C18.61 11.67 18.54 11.74 18.49 11.82C18.38 11.99 18.38 12.21 18.48 12.38L19.44 14.12C19.5 14.22 19.48 14.35 19.39 14.44C19.31 14.52 19.18 14.53 19.08 14.47L14.44 11.69C14.22 11.56 13.93 11.61 13.8 11.81C13.72 11.92 13.69 12.05 13.73 12.18C13.76 12.3 13.83 12.4 13.94 12.47C13.94 12.47 13.94 12.47 13.94 12.47L16.97 14.29C17.09 14.36 17.13 14.52 17.06 14.64C16.99 14.77 16.83 14.81 16.7 14.73L12.98 12.5C12.87 12.44 12.75 12.42 12.63 12.45C12.51 12.48 12.41 12.55 12.35 12.66C12.28 12.77 12.26 12.89 12.29 13.01C12.32 13.13 12.4 13.23 12.5 13.29L13.23 13.73L16.23 15.53C16.35 15.6 16.39 15.76 16.32 15.89C16.24 16.01 16.08 16.05 15.96 15.98L12.92 14.16C12.71 14.02 12.42 14.1 12.29 14.31C12.23 14.42 12.21 14.54 12.24 14.66C12.27 14.78 12.34 14.88 12.45 14.95L13.19 15.39L15.48 16.77C15.61 16.84 15.65 17 15.57 17.13C15.5 17.25 15.34 17.29 15.21 17.22L12.92 15.84C12.82 15.78 12.69 15.76 12.57 15.79C12.45 15.82 12.35 15.9 12.29 16C12.23 16.11 12.21 16.23 12.24 16.35C12.27 16.47 12.34 16.57 12.45 16.63L17.09 19.42C17.84 19.87 18.71 20.03 19.53 19.86C20.35 19.69 21.02 19.23 21.43 18.55C22.08 17.45 21.99 16.21 21.17 15.22L21.17 15.22Z" fill="#4CAF4F" fill-opacity="1.000000" fill-rule="nonzero"/>
	<path id="Vector" d="M21.88 18.82C21.44 19.55 20.74 20.07 19.9 20.31C19.81 20.33 19.73 20.35 19.64 20.37C18.69 20.57 17.69 20.39 16.82 19.87L12.18 17.08C11.95 16.95 11.79 16.73 11.73 16.48C11.7 16.37 11.69 16.27 11.7 16.16C11.71 16.01 11.76 15.86 11.84 15.73C11.85 15.71 11.86 15.7 11.87 15.68C11.96 15.56 12.06 15.47 12.18 15.4L12.18 15.4C12.06 15.32 11.95 15.22 11.87 15.11C11.81 15.01 11.76 14.91 11.73 14.79C11.71 14.73 11.71 14.66 11.7 14.6C11.7 14.53 11.7 14.46 11.71 14.39C11.73 14.27 11.78 14.15 11.84 14.04C11.85 14.02 11.87 14.01 11.88 13.99C11.96 13.87 12.07 13.77 12.18 13.71C12.07 13.63 11.97 13.52 11.9 13.41C11.85 13.32 11.81 13.23 11.79 13.14C11.77 13.09 11.76 13.04 11.76 12.98C11.74 12.78 11.79 12.57 11.9 12.39C12.01 12.21 12.17 12.07 12.37 11.99C12.41 11.97 12.45 11.95 12.5 11.94C12.58 11.92 12.66 11.91 12.74 11.91C12.76 11.91 12.78 11.91 12.79 11.91C12.93 11.92 13.07 11.96 13.2 12.03C13.2 11.89 13.24 11.75 13.3 11.62C13.32 11.58 13.34 11.54 13.37 11.51C13.43 11.42 13.5 11.34 13.58 11.28C13.9 11.05 14.34 11.02 14.71 11.24L17.02 12.63L17.81 13.1L18.51 13.52L18.12 12.81L18.02 12.64C17.92 12.46 17.87 12.26 17.88 12.06C17.89 11.89 17.94 11.71 18.04 11.55C18.13 11.39 18.27 11.26 18.44 11.16C18.57 11.09 18.72 11.05 18.87 11.05C19.18 11.05 19.48 11.22 19.65 11.51C20.09 12.32 20.85 13.69 21.19 14.29C21.27 14.44 21.33 14.55 21.35 14.57C21.36 14.6 21.41 14.67 21.45 14.72C21.49 14.78 21.53 14.83 21.58 14.89L21.58 14.89C22.26 15.71 22.51 16.72 22.32 17.69C22.24 18.08 22.09 18.46 21.88 18.82L21.88 18.82L21.88 18.82L21.88 18.82ZM21.43 18.55L21.43 18.55C21.16 18.99 20.79 19.34 20.34 19.57C20.09 19.7 19.82 19.8 19.53 19.86C18.71 20.03 17.84 19.87 17.09 19.42L14.83 18.06L12.51 16.67L12.45 16.63C12.34 16.57 12.27 16.47 12.24 16.35C12.21 16.23 12.23 16.11 12.29 16C12.3 15.98 12.31 15.97 12.32 15.95C12.38 15.87 12.47 15.82 12.57 15.79C12.69 15.76 12.82 15.78 12.92 15.84L12.98 15.88L13.08 15.94L14.68 16.9L15.21 17.22C15.23 17.23 15.24 17.23 15.26 17.24C15.37 17.28 15.51 17.24 15.57 17.13C15.64 17.02 15.61 16.88 15.52 16.79C15.51 16.78 15.49 16.78 15.48 16.77L14.95 16.45L13.59 15.63L13.19 15.39L12.51 14.98L12.45 14.95C12.42 14.93 12.39 14.91 12.37 14.89C12.3 14.83 12.26 14.75 12.24 14.66C12.21 14.54 12.23 14.42 12.29 14.31C12.3 14.3 12.31 14.28 12.32 14.27C12.46 14.09 12.72 14.03 12.92 14.16L12.98 14.19L13.08 14.25L15.43 15.66L15.96 15.98C15.97 15.98 15.98 15.99 16 16C16.11 16.04 16.25 16 16.32 15.89C16.38 15.77 16.36 15.63 16.26 15.55C16.25 15.54 16.24 15.53 16.23 15.53L15.7 15.21L13.6 13.95L13.23 13.73L12.56 13.33L12.5 13.29C12.46 13.27 12.42 13.23 12.39 13.19C12.34 13.14 12.31 13.08 12.29 13.01C12.26 12.89 12.28 12.77 12.35 12.66C12.41 12.55 12.51 12.48 12.63 12.45C12.7 12.43 12.77 12.43 12.84 12.45C12.89 12.46 12.93 12.47 12.98 12.5L13.04 12.54L13.67 12.92L13.7 12.94L14.07 13.16L16.17 14.42L16.7 14.73C16.71 14.74 16.73 14.75 16.74 14.75C16.86 14.8 16.99 14.76 17.06 14.64C17.13 14.54 17.1 14.4 17.01 14.32C17 14.3 16.99 14.29 16.97 14.29L16.44 13.97L14.1 12.56L14.02 12.52L13.94 12.47L13.94 12.47C13.83 12.4 13.76 12.3 13.73 12.18C13.7 12.08 13.71 11.98 13.75 11.88C13.76 11.86 13.78 11.83 13.8 11.81C13.91 11.64 14.14 11.58 14.35 11.65C14.37 11.65 14.39 11.66 14.41 11.67C14.42 11.68 14.43 11.68 14.44 11.69L14.47 11.71L14.5 11.72L14.5 11.72L17.43 13.48L17.54 13.55L17.98 13.81L18.32 14.02L18.55 14.16L19.08 14.47C19.18 14.53 19.31 14.52 19.39 14.44C19.47 14.36 19.49 14.25 19.45 14.15C19.45 14.14 19.45 14.13 19.44 14.12L19.14 13.58L19.01 13.35L18.82 13L18.5 12.44L18.48 12.38C18.46 12.36 18.45 12.34 18.44 12.31C18.38 12.15 18.4 11.97 18.49 11.82C18.54 11.74 18.61 11.67 18.69 11.62C18.87 11.52 19.09 11.59 19.19 11.76C19.23 11.84 19.27 11.92 19.31 11.99C19.74 12.77 20.06 13.34 20.3 13.76C20.61 14.33 20.78 14.62 20.87 14.77C20.88 14.82 20.88 14.82 21.02 15.03C21.07 15.09 21.12 15.16 21.17 15.22L21.17 15.22C21.83 16.01 22.02 16.97 21.73 17.89C21.7 17.97 21.67 18.04 21.64 18.12C21.58 18.27 21.51 18.41 21.43 18.55Z" fill="#4CAF4F" fill-opacity="1.000000" fill-rule="evenodd"/>
</svg>

