<svg width="34.000000" height="33.000000" viewBox="0 0 34 33" fill="none" xmlns="http://www.w3.org/2000/svg" xmlns:xlink="http://www.w3.org/1999/xlink">
	<desc>
			Created with Pixso.
	</desc>
	<defs>
		<clipPath id="clip211_2332">
			<rect id="Icon" width="33.411335" height="33.411335" transform="translate(-0.075439 -0.693848)" fill="white" fill-opacity="0"/>
		</clipPath>
	</defs>
	<g clip-path="url(#clip211_2332)">
		<path id="Vector" d="M16.78 19.78C18.09 18.68 19.03 17.2 19.47 15.54C19.92 13.89 19.84 12.13 19.25 10.53C18.67 8.92 17.6 7.53 16.19 6.54C14.79 5.56 13.12 5.03 11.4 5.03C9.69 5.03 8.02 5.56 6.62 6.54C5.21 7.53 4.14 8.92 3.56 10.53C2.97 12.13 2.89 13.89 3.33 15.54C3.78 17.2 4.72 18.68 6.03 19.78C3.9 20.74 2.07 22.26 0.73 24.16C0.49 24.5 0.4 24.92 0.47 25.33C0.54 25.74 0.77 26.1 1.11 26.34C1.37 26.53 1.68 26.63 2.01 26.63C2.26 26.63 2.51 26.57 2.73 26.46C2.95 26.34 3.14 26.17 3.29 25.97C4.2 24.66 5.42 23.6 6.83 22.86C8.24 22.13 9.81 21.75 11.4 21.75C13 21.75 14.57 22.13 15.98 22.86C17.39 23.6 18.61 24.66 19.52 25.97C19.64 26.14 19.78 26.3 19.96 26.42C20.13 26.54 20.33 26.62 20.54 26.66C20.75 26.71 20.96 26.7 21.17 26.66C21.38 26.62 21.57 26.53 21.75 26.41C21.92 26.29 22.07 26.13 22.18 25.95C22.29 25.77 22.36 25.57 22.4 25.36C22.43 25.15 22.41 24.93 22.36 24.73C22.31 24.52 22.21 24.33 22.08 24.16C20.74 22.26 18.91 20.74 16.78 19.78ZM6.18 13.4C6.18 12.36 6.49 11.35 7.06 10.5C7.64 9.64 8.45 8.97 9.41 8.57C10.36 8.18 11.41 8.08 12.42 8.28C13.44 8.48 14.37 8.98 15.1 9.71C15.83 10.44 16.32 11.37 16.52 12.38C16.73 13.39 16.62 14.44 16.23 15.39C15.83 16.35 15.16 17.16 14.31 17.74C13.45 18.31 12.44 18.62 11.4 18.62C10.02 18.62 8.69 18.07 7.71 17.09C6.73 16.11 6.18 14.78 6.18 13.4ZM32.34 26.34C32.08 26.53 31.76 26.63 31.44 26.63C31.19 26.63 30.94 26.57 30.72 26.45C30.5 26.34 30.3 26.17 30.16 25.97C29.24 24.66 28.03 23.6 26.61 22.87C25.2 22.14 23.63 21.75 22.04 21.75C21.63 21.75 21.23 21.58 20.93 21.29C20.64 21 20.48 20.6 20.48 20.18C20.48 19.77 20.64 19.37 20.93 19.08C21.23 18.78 21.63 18.62 22.04 18.62C23.43 18.62 24.75 18.07 25.73 17.09C26.71 16.11 27.26 14.78 27.26 13.4C27.26 12.01 26.71 10.68 25.73 9.71C24.75 8.73 23.43 8.18 22.04 8.18C21.56 8.18 21.09 8.24 20.63 8.37C20.43 8.43 20.22 8.45 20.02 8.43C19.81 8.41 19.61 8.34 19.43 8.24C19.25 8.14 19.09 8.01 18.96 7.84C18.83 7.68 18.73 7.5 18.68 7.3C18.62 7.1 18.6 6.89 18.63 6.68C18.66 6.47 18.72 6.27 18.82 6.09C18.93 5.91 19.07 5.76 19.23 5.63C19.39 5.5 19.58 5.41 19.78 5.36C20.52 5.15 21.28 5.04 22.04 5.04C23.76 5.04 25.43 5.56 26.84 6.54C28.24 7.52 29.31 8.91 29.9 10.52C30.49 12.14 30.56 13.89 30.12 15.54C29.68 17.2 28.73 18.68 27.42 19.78C29.54 20.74 31.37 22.26 32.72 24.16C32.84 24.33 32.92 24.52 32.97 24.72C33.01 24.92 33.02 25.13 32.98 25.33C32.95 25.54 32.87 25.73 32.76 25.9C32.65 26.08 32.51 26.23 32.34 26.34Z" fill="#4CAF4F" fill-opacity="1.000000" fill-rule="nonzero"/>
		<path id="Vector" d="M17.34 19.27C18.36 18.24 19.1 16.95 19.47 15.54C19.92 13.89 19.84 12.13 19.25 10.53C18.67 8.92 17.6 7.53 16.19 6.54C14.79 5.56 13.12 5.03 11.4 5.03C9.69 5.03 8.02 5.56 6.62 6.54C5.21 7.53 4.14 8.92 3.56 10.53C2.97 12.13 2.89 13.89 3.33 15.54C3.71 16.95 4.45 18.24 5.47 19.27C5.65 19.45 5.83 19.62 6.03 19.78C5.8 19.88 5.57 19.99 5.35 20.11C3.51 21.07 1.93 22.46 0.73 24.16C0.49 24.5 0.4 24.92 0.47 25.33C0.54 25.74 0.77 26.1 1.11 26.34C1.37 26.53 1.68 26.63 2.01 26.63C2.26 26.63 2.51 26.57 2.73 26.46C2.95 26.34 3.14 26.17 3.29 25.97C4.2 24.66 5.42 23.6 6.83 22.86C8.24 22.13 9.81 21.75 11.4 21.75C13 21.75 14.57 22.13 15.98 22.86C17.39 23.6 18.61 24.66 19.52 25.97C19.64 26.14 19.78 26.3 19.96 26.42C20.13 26.54 20.33 26.62 20.54 26.66C20.75 26.71 20.96 26.7 21.17 26.66C21.38 26.62 21.57 26.53 21.75 26.41C21.92 26.29 22.07 26.13 22.18 25.95C22.29 25.77 22.36 25.57 22.4 25.36C22.43 25.15 22.41 24.93 22.36 24.73C22.31 24.52 22.21 24.33 22.08 24.16C20.88 22.46 19.3 21.07 17.46 20.11C17.24 19.99 17.01 19.88 16.78 19.78C16.97 19.62 17.16 19.45 17.34 19.27ZM28.1 20.11C27.88 19.99 27.65 19.88 27.42 19.78C27.61 19.62 27.8 19.45 27.97 19.27C29 18.24 29.74 16.96 30.12 15.54C30.56 13.89 30.49 12.14 29.9 10.52C29.31 8.91 28.24 7.52 26.84 6.54C25.43 5.56 23.76 5.04 22.04 5.04C21.28 5.04 20.52 5.15 19.78 5.36C19.58 5.41 19.39 5.5 19.23 5.63C19.07 5.76 18.93 5.91 18.82 6.09C18.72 6.27 18.66 6.47 18.63 6.68C18.6 6.89 18.62 7.1 18.68 7.3C18.73 7.5 18.83 7.68 18.96 7.84C19.09 8.01 19.25 8.14 19.43 8.24C19.61 8.34 19.81 8.41 20.02 8.43C20.22 8.45 20.43 8.43 20.63 8.37C21.09 8.24 21.56 8.18 22.04 8.18C23.43 8.18 24.75 8.73 25.73 9.71C26.71 10.68 27.26 12.01 27.26 13.4C27.26 14.78 26.71 16.11 25.73 17.09C24.75 18.07 23.43 18.62 22.04 18.62C21.63 18.62 21.23 18.78 20.93 19.08C20.64 19.37 20.48 19.77 20.48 20.18C20.48 20.6 20.64 21 20.93 21.29C21.23 21.58 21.63 21.75 22.04 21.75C23.63 21.75 25.2 22.14 26.61 22.87C28.03 23.6 29.24 24.66 30.16 25.97C30.3 26.17 30.5 26.34 30.72 26.45C30.94 26.57 31.19 26.63 31.44 26.63C31.76 26.63 32.08 26.53 32.34 26.34C32.51 26.23 32.65 26.08 32.76 25.9C32.87 25.73 32.95 25.54 32.98 25.33C33.02 25.13 33.01 24.92 32.97 24.72C32.92 24.52 32.84 24.33 32.72 24.16C31.52 22.46 29.94 21.07 28.1 20.11ZM19.06 13.05C19.1 13.81 19.01 14.58 18.8 15.36C18.6 16.14 18.29 16.85 17.87 17.5C17.46 18.15 16.95 18.73 16.33 19.25L15.49 19.96L16.49 20.41C17.52 20.88 18.45 21.45 19.29 22.15C20.12 22.84 20.86 23.64 21.51 24.56L21.52 24.58L21.53 24.59C21.57 24.64 21.6 24.69 21.63 24.74C21.65 24.79 21.67 24.85 21.69 24.91C21.7 24.96 21.71 25.02 21.72 25.08C21.72 25.14 21.72 25.2 21.71 25.26C21.7 25.31 21.68 25.37 21.66 25.43C21.64 25.48 21.62 25.53 21.59 25.58C21.56 25.63 21.52 25.68 21.48 25.72C21.44 25.77 21.4 25.8 21.35 25.84C21.3 25.87 21.25 25.9 21.19 25.93C21.14 25.95 21.08 25.97 21.03 25.98C20.97 25.99 20.91 26 20.85 26C20.79 26 20.73 25.99 20.68 25.98C20.62 25.97 20.56 25.95 20.51 25.93C20.45 25.91 20.4 25.88 20.35 25.85C20.3 25.81 20.26 25.77 20.22 25.73C20.18 25.69 20.14 25.64 20.11 25.59L20.1 25.58L20.09 25.57C19.6 24.86 19.03 24.23 18.4 23.67C17.77 23.12 17.07 22.64 16.3 22.25C15.53 21.85 14.74 21.55 13.93 21.35C13.11 21.15 12.27 21.05 11.4 21.05C10.54 21.05 9.7 21.15 8.88 21.35C8.07 21.55 7.28 21.85 6.51 22.25C5.75 22.64 5.06 23.11 4.43 23.66C3.79 24.22 3.22 24.85 2.72 25.57C2.68 25.63 2.63 25.68 2.58 25.72C2.53 25.77 2.47 25.81 2.41 25.84C2.36 25.86 2.3 25.89 2.25 25.9C2.17 25.92 2.09 25.93 2.01 25.93C1.92 25.93 1.84 25.92 1.76 25.9C1.67 25.87 1.59 25.83 1.51 25.78C1.41 25.71 1.33 25.62 1.27 25.53C1.21 25.44 1.17 25.33 1.15 25.21C1.13 25.09 1.13 24.98 1.16 24.87C1.18 24.76 1.23 24.66 1.3 24.56C1.95 23.64 2.69 22.84 3.52 22.15C4.36 21.45 5.29 20.88 6.31 20.41L7.32 19.96L6.48 19.25C5.86 18.73 5.35 18.15 4.94 17.5C4.52 16.85 4.21 16.14 4.01 15.36C3.8 14.58 3.71 13.81 3.75 13.05C3.78 12.28 3.94 11.52 4.21 10.76C4.49 10.01 4.86 9.33 5.33 8.72C5.79 8.11 6.36 7.57 7.01 7.11C7.67 6.65 8.37 6.31 9.1 6.08C9.83 5.85 10.6 5.73 11.4 5.73C12.21 5.73 12.98 5.85 13.71 6.08C14.44 6.31 15.14 6.65 15.79 7.11C16.45 7.57 17.02 8.11 17.48 8.72C17.95 9.33 18.32 10.01 18.6 10.76C18.87 11.52 19.03 12.28 19.06 13.05ZM31.44 25.93L31.44 25.93C31.37 25.93 31.3 25.93 31.24 25.91C31.17 25.89 31.1 25.87 31.04 25.83C30.98 25.8 30.92 25.76 30.87 25.72C30.81 25.67 30.77 25.62 30.73 25.56C30.23 24.86 29.67 24.24 29.05 23.69C28.41 23.13 27.71 22.65 26.93 22.25C26.17 21.85 25.38 21.55 24.56 21.35C23.75 21.15 22.91 21.05 22.04 21.05C21.92 21.05 21.81 21.03 21.71 20.99C21.6 20.95 21.51 20.88 21.43 20.8C21.34 20.71 21.28 20.62 21.24 20.52C21.19 20.41 21.17 20.3 21.17 20.18C21.17 20.06 21.19 19.95 21.24 19.85C21.28 19.75 21.34 19.65 21.43 19.57C21.51 19.48 21.6 19.42 21.71 19.38C21.81 19.33 21.92 19.31 22.04 19.31C22.86 19.31 23.62 19.17 24.31 18.88C25.01 18.59 25.65 18.16 26.23 17.58C26.8 17 27.24 16.37 27.52 15.67C27.81 14.97 27.96 14.21 27.96 13.4C27.96 12.58 27.81 11.82 27.52 11.13C27.24 10.43 26.8 9.79 26.23 9.21C25.65 8.64 25.01 8.2 24.31 7.91C23.62 7.62 22.86 7.48 22.04 7.48C21.78 7.48 21.52 7.5 21.27 7.53C20.99 7.57 20.71 7.62 20.44 7.7C20.35 7.73 20.25 7.74 20.16 7.74C20.14 7.74 20.12 7.74 20.09 7.74C20.03 7.73 19.98 7.72 19.92 7.7C19.87 7.68 19.82 7.66 19.76 7.63C19.71 7.61 19.67 7.57 19.62 7.54C19.58 7.5 19.54 7.46 19.5 7.41C19.47 7.37 19.44 7.32 19.41 7.27C19.38 7.22 19.36 7.16 19.35 7.11C19.33 7.05 19.32 6.99 19.32 6.94C19.31 6.88 19.31 6.82 19.32 6.77C19.33 6.71 19.34 6.65 19.36 6.6C19.38 6.54 19.4 6.49 19.43 6.44C19.46 6.39 19.49 6.34 19.53 6.3C19.57 6.26 19.61 6.22 19.65 6.18C19.7 6.15 19.75 6.12 19.8 6.09C19.85 6.07 19.91 6.04 19.96 6.03C20.41 5.9 20.87 5.82 21.32 5.77C21.56 5.75 21.8 5.74 22.04 5.74C22.85 5.74 23.63 5.85 24.36 6.08C25.09 6.31 25.78 6.66 26.44 7.11C27.1 7.57 27.66 8.11 28.13 8.72C28.6 9.33 28.97 10.01 29.25 10.76C29.52 11.52 29.68 12.28 29.71 13.05C29.74 13.81 29.66 14.59 29.45 15.36C29.24 16.14 28.93 16.85 28.52 17.5C28.1 18.15 27.59 18.73 26.97 19.25L26.12 19.96L27.13 20.41C28.16 20.88 29.09 21.45 29.92 22.15C30.76 22.84 31.5 23.64 32.15 24.56C32.2 24.63 32.23 24.7 32.26 24.78C32.27 24.81 32.28 24.84 32.29 24.88C32.3 24.93 32.31 24.99 32.31 25.04C32.31 25.1 32.31 25.16 32.3 25.21C32.29 25.27 32.27 25.32 32.25 25.38C32.23 25.43 32.21 25.48 32.18 25.53C32.15 25.58 32.11 25.62 32.07 25.66C32.03 25.7 31.99 25.74 31.94 25.77C31.85 25.84 31.76 25.88 31.65 25.91C31.59 25.93 31.52 25.93 31.44 25.93ZM7.65 8.82C7.21 9.18 6.82 9.61 6.49 10.11C6.15 10.61 5.9 11.13 5.74 11.68C5.57 12.23 5.49 12.8 5.49 13.4C5.49 14.21 5.63 14.97 5.92 15.67C6.21 16.37 6.64 17 7.22 17.58C7.8 18.16 8.44 18.59 9.13 18.88C9.83 19.17 10.59 19.31 11.4 19.31C12 19.31 12.58 19.23 13.12 19.06C13.67 18.9 14.19 18.65 14.69 18.32C15.19 17.98 15.62 17.6 15.98 17.15C16.35 16.71 16.64 16.21 16.87 15.66C17.1 15.11 17.24 14.55 17.3 13.98C17.35 13.41 17.32 12.83 17.21 12.24C17.09 11.66 16.9 11.11 16.63 10.6C16.36 10.1 16.01 9.64 15.59 9.21C15.17 8.79 14.7 8.44 14.2 8.17C13.69 7.9 13.15 7.71 12.56 7.59C11.97 7.48 11.39 7.45 10.82 7.5C10.25 7.56 9.69 7.7 9.14 7.93C8.59 8.16 8.09 8.46 7.65 8.82ZM6.18 13.4C6.18 12.36 6.49 11.35 7.06 10.5C7.64 9.64 8.45 8.97 9.41 8.57C10.36 8.18 11.41 8.08 12.42 8.28C13.44 8.48 14.37 8.98 15.1 9.71C15.83 10.44 16.32 11.37 16.52 12.38C16.73 13.39 16.62 14.44 16.23 15.39C15.83 16.35 15.16 17.16 14.31 17.74C13.45 18.31 12.44 18.62 11.4 18.62C10.02 18.62 8.69 18.07 7.71 17.09C6.73 16.11 6.18 14.78 6.18 13.4Z" fill="#4CAF4F" fill-opacity="1.000000" fill-rule="evenodd"/>
	</g>
</svg>

