<svg width="24.000000" height="27.000000" viewBox="0 0 24 27" fill="none" xmlns="http://www.w3.org/2000/svg" xmlns:xlink="http://www.w3.org/1999/xlink">
	<desc>
			Created with Pixso.
	</desc>
	<defs/>
	<path id="Vector" d="M22.76 25.38L22.76 22.59C22.76 21.12 22.18 19.7 21.13 18.66C20.09 17.61 18.67 17.03 17.19 17.03L15.8 17.03C15.43 17.03 15.08 16.88 14.82 16.62C14.56 16.36 14.41 16 14.41 15.63L14.41 8.67C14.41 7.93 14.12 7.23 13.59 6.7C13.07 6.18 12.36 5.89 11.63 5.89C10.89 5.89 10.18 6.18 9.66 6.7C9.13 7.23 8.84 7.93 8.84 8.67L8.84 21.2L5.5 16.75C5.24 16.4 4.9 16.12 4.52 15.93C4.13 15.73 3.7 15.63 3.27 15.63L2.67 15.63C1.46 15.63 0.49 16.61 0.49 17.81C0.49 18.21 0.6 18.6 0.8 18.94L4.66 25.38L22.76 25.38ZM11.63 1.71L11.63 0.32L11.63 1.71ZM19.98 10.07L21.37 10.07L19.98 10.07ZM1.88 10.07L3.27 10.07L1.88 10.07ZM5.14 3.58L4.16 2.6L5.14 3.58ZM18.11 3.58L19.09 2.6L18.11 3.58ZM23.44 25.36L23.46 25.38C23.46 25.77 23.15 26.08 22.76 26.08C22.37 26.08 22.07 25.77 22.07 25.38L22.09 25.36L23.44 25.36ZM5.23 25.01L5.26 25.02C5.46 25.36 5.36 25.78 5.02 25.98C4.69 26.18 4.27 26.07 4.07 25.74L4.07 25.71L5.23 25.01ZM12.3 1.69L12.32 1.71C12.32 2.1 12.02 2.41 11.63 2.41C11.24 2.41 10.93 2.1 10.93 1.71L10.95 1.69L12.3 1.69ZM10.95 0.34L10.93 0.32C10.93 -0.07 11.24 -0.38 11.63 -0.38C12.02 -0.38 12.32 -0.07 12.32 0.32L12.3 0.34L10.95 0.34ZM20 10.74L19.98 10.76C19.59 10.76 19.28 10.46 19.28 10.07C19.28 9.68 19.59 9.37 19.98 9.37L20 9.39L20 10.74ZM21.35 9.39L21.37 9.37C21.76 9.37 22.07 9.68 22.07 10.07C22.07 10.46 21.76 10.76 21.37 10.76L21.35 10.74L21.35 9.39ZM1.9 10.74L1.88 10.76C1.49 10.76 1.18 10.46 1.18 10.07C1.18 9.68 1.49 9.37 1.88 9.37L1.9 9.39L1.9 10.74ZM3.25 9.39L3.27 9.37C3.66 9.37 3.97 9.68 3.97 10.07C3.97 10.46 3.66 10.76 3.27 10.76L3.25 10.74L3.25 9.39ZM5.61 3.09L5.63 3.09C5.91 3.37 5.91 3.8 5.63 4.07C5.36 4.35 4.93 4.35 4.65 4.07L4.65 4.05L5.61 3.09ZM3.69 3.09L3.67 3.09C3.39 2.81 3.39 2.38 3.67 2.11C3.94 1.83 4.37 1.83 4.65 2.11L4.65 2.13L3.69 3.09ZM18.6 4.05L18.6 4.07C18.33 4.35 17.89 4.35 17.62 4.07C17.34 3.8 17.34 3.37 17.62 3.09L17.64 3.09L18.6 4.05ZM18.6 2.13L18.6 2.11C18.88 1.83 19.31 1.83 19.58 2.11C19.86 2.38 19.86 2.81 19.58 3.09L19.56 3.09L18.6 2.13Z" fill="#4CAF4F" fill-opacity="1.000000" fill-rule="nonzero"/>
	<path id="Vector" d="M22.76 25.38L22.76 22.59C22.76 21.12 22.18 19.7 21.13 18.66C20.09 17.61 18.67 17.03 17.19 17.03L15.8 17.03C15.43 17.03 15.08 16.88 14.82 16.62C14.56 16.36 14.41 16 14.41 15.63L14.41 8.67C14.41 7.93 14.12 7.23 13.59 6.7C13.07 6.18 12.36 5.89 11.63 5.89C10.89 5.89 10.18 6.18 9.66 6.7C9.13 7.23 8.84 7.93 8.84 8.67L8.84 21.2L5.5 16.75C5.24 16.4 4.9 16.12 4.52 15.93C4.13 15.73 3.7 15.63 3.27 15.63L2.67 15.63C1.46 15.63 0.49 16.61 0.49 17.81C0.49 18.21 0.6 18.6 0.8 18.94L4.66 25.38M11.63 1.71L11.63 0.32M19.98 10.07L21.37 10.07M1.88 10.07L3.27 10.07M5.14 3.58L4.16 2.6M18.11 3.58L19.09 2.6" stroke="#4CAF4F" stroke-opacity="1.000000" stroke-width="1.392139" stroke-linejoin="round"/>
</svg>

